  0
SECTION
  2
HEADER
  9
$ACADVER
  1
AC1015
  9
$ACADMAINTVER
 70
    20
  9
$DWGCODEPAGE
  3
ANSI_936
  9
$INSBASE
 10
0.0
 20
0.0
 30
0.0
  9
$EXTMIN
 10
194.3571690450616
 20
113.3949342114645
 30
0.0
  9
$EXTMAX
 10
315.8571690450616
 20
179.8949342114645
 30
0.0
  9
$LIMMIN
 10
0.0
 20
0.0
  9
$LIMMAX
 10
420.0
 20
297.0
  9
$ORTHOMODE
 70
     0
  9
$REGENMODE
 70
     1
  9
$FILLMODE
 70
     1
  9
$QTEXTMODE
 70
     0
  9
$MIRRTEXT
 70
     0
  9
$LTSCALE
 40
1.0
  9
$ATTMODE
 70
     1
  9
$TEXTSIZE
 40
2.5
  9
$TRACEWID
 40
1.0
  9
$TEXTSTYLE
  7
Standard
  9
$CLAYER
  8
0
  9
$CELTYPE
  6
ByLayer
  9
$CECOLOR
 62
   256
  9
$CELTSCALE
 40
1.0
  9
$DISPSILH
 70
     0
  9
$DIMSCALE
 40
1.0
  9
$DIMASZ
 40
2.5
  9
$DIMEXO
 40
0.625
  9
$DIMDLI
 40
3.75
  9
$DIMRND
 40
0.0
  9
$DIMDLE
 40
0.0
  9
$DIMEXE
 40
1.25
  9
$DIMTP
 40
0.0
  9
$DIMTM
 40
0.0
  9
$DIMTXT
 40
2.5
  9
$DIMCEN
 40
2.5
  9
$DIMTSZ
 40
0.0
  9
$DIMTOL
 70
     0
  9
$DIMLIM
 70
     0
  9
$DIMTIH
 70
     0
  9
$DIMTOH
 70
     0
  9
$DIMSE1
 70
     0
  9
$DIMSE2
 70
     0
  9
$DIMTAD
 70
     1
  9
$DIMZIN
 70
     8
  9
$DIMBLK
  1

  9
$DIMASO
 70
     1
  9
$DIMSHO
 70
     1
  9
$DIMPOST
  1

  9
$DIMAPOST
  1

  9
$DIMALT
 70
     0
  9
$DIMALTD
 70
     3
  9
$DIMALTF
 40
0.03937007874016
  9
$DIMLFAC
 40
1.0
  9
$DIMTOFL
 70
     1
  9
$DIMTVP
 40
0.0
  9
$DIMTIX
 70
     0
  9
$DIMSOXD
 70
     0
  9
$DIMSAH
 70
     0
  9
$DIMBLK1
  1

  9
$DIMBLK2
  1

  9
$DIMSTYLE
  2
ISO-25
  9
$DIMCLRD
 70
     0
  9
$DIMCLRE
 70
     0
  9
$DIMCLRT
 70
     0
  9
$DIMTFAC
 40
1.0
  9
$DIMGAP
 40
0.625
  9
$DIMJUST
 70
     0
  9
$DIMSD1
 70
     0
  9
$DIMSD2
 70
     0
  9
$DIMTOLJ
 70
     0
  9
$DIMTZIN
 70
     8
  9
$DIMALTZ
 70
     0
  9
$DIMALTTZ
 70
     0
  9
$DIMUPT
 70
     0
  9
$DIMDEC
 70
     2
  9
$DIMTDEC
 70
     2
  9
$DIMALTU
 70
     2
  9
$DIMALTTD
 70
     3
  9
$DIMTXSTY
  7
Standard
  9
$DIMAUNIT
 70
     0
  9
$DIMADEC
 70
     0
  9
$DIMALTRND
 40
0.0
  9
$DIMAZIN
 70
     0
  9
$DIMDSEP
 70
    46
  9
$DIMATFIT
 70
     3
  9
$DIMFRAC
 70
     0
  9
$DIMLDRBLK
  1

  9
$DIMLUNIT
 70
     2
  9
$DIMLWD
 70
    -2
  9
$DIMLWE
 70
    -2
  9
$DIMTMOVE
 70
     0
  9
$LUNITS
 70
     2
  9
$LUPREC
 70
     4
  9
$SKETCHINC
 40
1.0
  9
$FILLETRAD
 40
0.0
  9
$AUNITS
 70
     0
  9
$AUPREC
 70
     0
  9
$MENU
  1
.
  9
$ELEVATION
 40
0.0
  9
$PELEVATION
 40
0.0
  9
$THICKNESS
 40
0.0
  9
$LIMCHECK
 70
     0
  9
$CHAMFERA
 40
0.0
  9
$CHAMFERB
 40
0.0
  9
$CHAMFERC
 40
0.0
  9
$CHAMFERD
 40
0.0
  9
$SKPOLY
 70
     0
  9
$TDCREATE
 40
2457333.457949422
  9
$TDUCREATE
 40
2457333.124616088
  9
$TDUPDATE
 40
2457333.458365023
  9
$TDUUPDATE
 40
2457333.125031690
  9
$TDINDWG
 40
0.0004163310
  9
$TDUSRTIMER
 40
0.0004163310
  9
$USRTIMER
 70
     1
  9
$ANGBASE
 50
0.0
  9
$ANGDIR
 70
     0
  9
$PDMODE
 70
     0
  9
$PDSIZE
 40
0.0
  9
$PLINEWID
 40
0.0
  9
$SPLFRAME
 70
     0
  9
$SPLINETYPE
 70
     6
  9
$SPLINESEGS
 70
     8
  9
$HANDSEED
  5
352
  9
$SURFTAB1
 70
     6
  9
$SURFTAB2
 70
     6
  9
$SURFTYPE
 70
     6
  9
$SURFU
 70
     6
  9
$SURFV
 70
     6
  9
$UCSBASE
  2

  9
$UCSNAME
  2

  9
$UCSORG
 10
0.0
 20
0.0
 30
0.0
  9
$UCSXDIR
 10
1.0
 20
0.0
 30
0.0
  9
$UCSYDIR
 10
0.0
 20
1.0
 30
0.0
  9
$UCSORTHOREF
  2

  9
$UCSORTHOVIEW
 70
     0
  9
$UCSORGTOP
 10
0.0
 20
0.0
 30
0.0
  9
$UCSORGBOTTOM
 10
0.0
 20
0.0
 30
0.0
  9
$UCSORGLEFT
 10
0.0
 20
0.0
 30
0.0
  9
$UCSORGRIGHT
 10
0.0
 20
0.0
 30
0.0
  9
$UCSORGFRONT
 10
0.0
 20
0.0
 30
0.0
  9
$UCSORGBACK
 10
0.0
 20
0.0
 30
0.0
  9
$PUCSBASE
  2

  9
$PUCSNAME
  2

  9
$PUCSORG
 10
0.0
 20
0.0
 30
0.0
  9
$PUCSXDIR
 10
1.0
 20
0.0
 30
0.0
  9
$PUCSYDIR
 10
0.0
 20
1.0
 30
0.0
  9
$PUCSORTHOREF
  2

  9
$PUCSORTHOVIEW
 70
     0
  9
$PUCSORGTOP
 10
0.0
 20
0.0
 30
0.0
  9
$PUCSORGBOTTOM
 10
0.0
 20
0.0
 30
0.0
  9
$PUCSORGLEFT
 10
0.0
 20
0.0
 30
0.0
  9
$PUCSORGRIGHT
 10
0.0
 20
0.0
 30
0.0
  9
$PUCSORGFRONT
 10
0.0
 20
0.0
 30
0.0
  9
$PUCSORGBACK
 10
0.0
 20
0.0
 30
0.0
  9
$USERI1
 70
     0
  9
$USERI2
 70
     0
  9
$USERI3
 70
     0
  9
$USERI4
 70
     0
  9
$USERI5
 70
     0
  9
$USERR1
 40
0.0
  9
$USERR2
 40
0.0
  9
$USERR3
 40
0.0
  9
$USERR4
 40
0.0
  9
$USERR5
 40
0.0
  9
$WORLDVIEW
 70
     1
  9
$SHADEDGE
 70
     3
  9
$SHADEDIF
 70
    70
  9
$TILEMODE
 70
     1
  9
$MAXACTVP
 70
    64
  9
$PINSBASE
 10
0.0
 20
0.0
 30
0.0
  9
$PLIMCHECK
 70
     0
  9
$PEXTMIN
 10
1.000000000000000E+20
 20
1.000000000000000E+20
 30
1.000000000000000E+20
  9
$PEXTMAX
 10
-1.000000000000000E+20
 20
-1.000000000000000E+20
 30
-1.000000000000000E+20
  9
$PLIMMIN
 10
0.0
 20
0.0
  9
$PLIMMAX
 10
420.0
 20
297.0
  9
$UNITMODE
 70
     0
  9
$VISRETAIN
 70
     1
  9
$PLINEGEN
 70
     0
  9
$PSLTSCALE
 70
     1
  9
$TREEDEPTH
 70
  3020
  9
$CMLSTYLE
  2
Standard
  9
$CMLJUST
 70
     0
  9
$CMLSCALE
 40
20.0
  9
$PROXYGRAPHICS
 70
     1
  9
$MEASUREMENT
 70
     1
  9
$CELWEIGHT
370
    -1
  9
$ENDCAPS
280
     0
  9
$JOINSTYLE
280
     0
  9
$LWDISPLAY
290
     0
  9
$INSUNITS
 70
     4
  9
$HYPERLINKBASE
  1

  9
$STYLESHEET
  1

  9
$XEDIT
290
     1
  9
$CEPSNTYPE
380
     0
  9
$PSTYLEMODE
290
     1
  9
$FINGERPRINTGUID
  2
{4F1F17E6-E8B4-4EFC-BF7F-921024DA3F29}
  9
$VERSIONGUID
  2
{9453F8FD-5342-4CA0-A09B-0B8B9DD23E15}
  9
$EXTNAMES
290
     1
  9
$PSVPSCALE
 40
0.0
  9
$OLESTARTUP
290
     0
  0
ENDSEC
  0
SECTION
  2
CLASSES
  0
CLASS
  1
ACDBDICTIONARYWDFLT
  2
AcDbDictionaryWithDefault
  3
ObjectDBX Classes
 90
        0
280
     0
281
     0
  0
CLASS
  1
MATERIAL
  2
AcDbMaterial
  3
ObjectDBX Classes
 90
     1024
280
     0
281
     0
  0
CLASS
  1
VISUALSTYLE
  2
AcDbVisualStyle
  3
ObjectDBX Classes
 90
     4095
280
     0
281
     0
  0
CLASS
  1
TABLESTYLE
  2
AcDbTableStyle
  3
ObjectDBX Classes
 90
     4095
280
     0
281
     0
  0
CLASS
  1
SORTENTSTABLE
  2
AcDbSortentsTable
  3
ObjectDBX Classes
 90
        0
280
     0
281
     0
  0
CLASS
  1
DICTIONARYVAR
  2
AcDbDictionaryVar
  3
ObjectDBX Classes
 90
        0
280
     0
281
     0
  0
CLASS
  1
ACDBPLACEHOLDER
  2
AcDbPlaceHolder
  3
ObjectDBX Classes
 90
        0
280
     0
281
     0
  0
CLASS
  1
LAYOUT
  2
AcDbLayout
  3
ObjectDBX Classes
 90
        0
280
     0
281
     0
  0
ENDSEC
  0
SECTION
  2
TABLES
  0
TABLE
  2
VPORT
  5
8
330
0
100
AcDbSymbolTable
 70
     1
  0
VPORT
  5
28
330
8
100
AcDbSymbolTableRecord
100
AcDbViewportTableRecord
  2
*Active
 70
     0
 10
0.0
 20
0.0
 11
1.0
 21
1.0
 12
238.2166839718621
 22
143.960884984556
 13
0.0
 23
0.0
 14
10.0
 24
10.0
 15
10.0
 25
10.0
 16
0.0
 26
0.0
 36
1.0
 17
0.0
 27
0.0
 37
0.0
 40
130.4550050869756
 41
1.825187969924812
 42
50.0
 43
0.0
 44
0.0
 50
0.0
 51
0.0
 71
     0
 72
  1000
 73
     1
 74
     3
 75
     0
 76
     0
 77
     0
 78
     0
281
     0
 65
     1
110
0.0
120
0.0
130
0.0
111
1.0
121
0.0
131
0.0
112
0.0
122
1.0
132
0.0
 79
     0
146
0.0
  0
ENDTAB
  0
TABLE
  2
LTYPE
  5
5
330
0
100
AcDbSymbolTable
 70
     1
  0
LTYPE
  5
29
330
5
100
AcDbSymbolTableRecord
100
AcDbLinetypeTableRecord
  2
ByBlock
 70
     0
  3

 72
    65
 73
     0
 40
0.0
  0
LTYPE
  5
2A
330
5
100
AcDbSymbolTableRecord
100
AcDbLinetypeTableRecord
  2
ByLayer
 70
     0
  3

 72
    65
 73
     0
 40
0.0
  0
LTYPE
  5
2B
330
5
100
AcDbSymbolTableRecord
100
AcDbLinetypeTableRecord
  2
Continuous
 70
     0
  3
Solid line
 72
    65
 73
     0
 40
0.0
  0
ENDTAB
  0
TABLE
  2
LAYER
  5
2
330
0
100
AcDbSymbolTable
 70
     2
  0
LAYER
  5
25
330
2
100
AcDbSymbolTableRecord
100
AcDbLayerTableRecord
  2
0
 70
     0
 62
     7
  6
Continuous
370
    -3
390
F
  0
LAYER
  5
42
330
2
100
AcDbSymbolTableRecord
100
AcDbLayerTableRecord
  2
06___PRT_ALL_SURFS
 70
     0
 62
     7
  6
Continuous
370
    -3
390
F
  0
ENDTAB
  0
TABLE
  2
STYLE
  5
3
330
0
100
AcDbSymbolTable
 70
     1
  0
STYLE
  5
26
330
3
100
AcDbSymbolTableRecord
100
AcDbTextStyleTableRecord
  2
Standard
 70
     0
 40
0.0
 41
1.0
 50
0.0
 71
     0
 42
2.5
  3
txt
  4

  0
ENDTAB
  0
TABLE
  2
VIEW
  5
6
330
0
100
AcDbSymbolTable
 70
     0
  0
ENDTAB
  0
TABLE
  2
UCS
  5
7
330
0
100
AcDbSymbolTable
 70
     0
  0
ENDTAB
  0
TABLE
  2
APPID
  5
9
330
0
100
AcDbSymbolTable
 70
     2
  0
APPID
  5
27
330
9
100
AcDbSymbolTableRecord
100
AcDbRegAppTableRecord
  2
ACAD
 70
     0
  0
APPID
  5
351
330
9
100
AcDbSymbolTableRecord
100
AcDbRegAppTableRecord
  2
ACAD_DSTYLE_DIMJOGGED_JOGANGLE_SYMBOL
 70
     0
  0
ENDTAB
  0
TABLE
  2
DIMSTYLE
  5
A
330
0
100
AcDbSymbolTable
 70
     2
100
AcDbDimStyleTable
 71
     0
  0
DIMSTYLE
105
3F
330
A
100
AcDbSymbolTableRecord
100
AcDbDimStyleTableRecord
  2
ISO-25
 70
     0
 41
2.5
 42
0.625
 43
3.75
 44
1.25
 73
     0
 74
     0
 77
     1
 78
     8
140
2.5
141
2.5
143
0.03937007874016
147
0.625
171
     3
172
     1
271
     2
272
     2
274
     3
283
     0
284
     8
340
26
1001
ACAD_DSTYLE_DIMJOGGED_JOGANGLE_SYMBOL
1070
   384
1040
1.570796326794896
  0
DIMSTYLE
105
43
330
A
100
AcDbSymbolTableRecord
100
AcDbDimStyleTableRecord
  2
STANDARD
 70
     0
 41
3.5
 42
1.0
 44
1.5
 47
0.01
 48
0.01
 71
     1
 73
     0
 74
     0
 77
     1
 78
     8
140
3.5
147
0.625
271
     2
272
     2
284
     8
340
26
  0
ENDTAB
  0
TABLE
  2
BLOCK_RECORD
  5
1
330
0
100
AcDbSymbolTable
 70
     2
  0
BLOCK_RECORD
  5
37
330
1
100
AcDbSymbolTableRecord
100
AcDbBlockTableRecord
  2
*Model_Space
340
3A
  0
BLOCK_RECORD
  5
33
330
1
100
AcDbSymbolTableRecord
100
AcDbBlockTableRecord
  2
*Paper_Space
340
36
  0
BLOCK_RECORD
  5
3B
330
1
100
AcDbSymbolTableRecord
100
AcDbBlockTableRecord
  2
*Paper_Space0
340
3E
  0
ENDTAB
  0
ENDSEC
  0
SECTION
  2
BLOCKS
  0
BLOCK
  5
38
330
37
100
AcDbEntity
  8
0
100
AcDbBlockBegin
  2
*Model_Space
 70
     0
 10
0.0
 20
0.0
 30
0.0
  3
*Model_Space
  1

  0
ENDBLK
  5
39
330
37
100
AcDbEntity
  8
0
100
AcDbBlockEnd
  0
BLOCK
  5
34
330
33
100
AcDbEntity
 67
     1
  8
0
100
AcDbBlockBegin
  2
*Paper_Space
 70
     0
 10
0.0
 20
0.0
 30
0.0
  3
*Paper_Space
  1

  0
ENDBLK
  5
35
330
33
100
AcDbEntity
 67
     1
  8
0
100
AcDbBlockEnd
  0
BLOCK
  5
3C
330
3B
100
AcDbEntity
 67
     1
  8
0
100
AcDbBlockBegin
  2
*Paper_Space0
 70
     0
 10
0.0
 20
0.0
 30
0.0
  3
*Paper_Space0
  1

  0
ENDBLK
  5
3D
330
3B
100
AcDbEntity
 67
     1
  8
0
100
AcDbBlockEnd
  0
ENDSEC
  0
SECTION
  2
ENTITIES
  0
LINE
  5
1C2
330
37
100
AcDbEntity
  8
0
  6
Continuous
 62
     7
100
AcDbLine
 10
204.8586929057616
 20
113.3949342114645
 30
0.0
 11
230.1071690450616
 21
113.3949342114645
 31
0.0
  0
LINE
  5
1C3
330
37
100
AcDbEntity
  8
0
  6
Continuous
 62
     7
100
AcDbLine
 10
269.8023534864616
 20
119.2324109844645
 30
0.0
 11
266.8759579550615
 21
119.1276805949645
 31
0.0
  0
LINE
  5
1C4
330
37
100
AcDbEntity
  8
0
  6
Continuous
 62
     7
100
AcDbLine
 10
242.0297562729615
 20
114.1221021163645
 30
0.0
 11
238.0297562729615
 21
114.1221021163645
 31
0.0
  0
LINE
  5
1C5
330
37
100
AcDbEntity
  8
0
  6
Continuous
 62
     7
100
AcDbLine
 10
280.7071690450616
 20
114.6949342114645
 30
0.0
 11
292.5071690450616
 21
114.6949342114645
 31
0.0
  0
LINE
  5
1C6
330
37
100
AcDbEntity
  8
0
  6
Continuous
 62
     7
100
AcDbLine
 10
216.0571690450615
 20
115.4949342114645
 30
0.0
 11
231.1571690450616
 21
115.4949342114645
 31
0.0
  0
LINE
  5
1C7
330
37
100
AcDbEntity
  8
0
  6
Continuous
 62
     7
100
AcDbLine
 10
264.9071690450615
 20
115.6833617710645
 30
0.0
 11
276.9071690450616
 21
115.6833617710645
 31
0.0
  0
LINE
  5
1C8
330
37
100
AcDbEntity
  8
0
  6
Continuous
 62
     7
100
AcDbLine
 10
266.8023534864616
 20
115.7532033099645
 30
0.0
 11
276.9071690450616
 21
115.7532033099645
 31
0.0
  0
LINE
  5
1C9
330
37
100
AcDbEntity
  8
0
  6
Continuous
 62
     7
100
AcDbLine
 10
244.3071690450615
 20
115.8134102123645
 30
0.0
 11
248.6071690450616
 21
115.8134102123645
 31
0.0
  0
LINE
  5
1CA
330
37
100
AcDbEntity
  8
0
  6
Continuous
 62
     7
100
AcDbLine
 10
261.6071690450616
 20
115.8134102123645
 30
0.0
 11
264.7119972286616
 21
115.8134102123645
 31
0.0
  0
LINE
  5
1CB
330
37
100
AcDbEntity
  8
0
  6
Continuous
 62
     7
100
AcDbLine
 10
248.6071690450616
 20
115.9619864868645
 30
0.0
 11
244.3665162658616
 21
115.9619864868645
 31
0.0
  0
LINE
  5
1CC
330
37
100
AcDbEntity
  8
0
  6
Continuous
 62
     7
100
AcDbLine
 10
261.6071690450616
 20
115.9619864868645
 30
0.0
 11
266.4890195361615
 21
115.9619864868645
 31
0.0
  0
LINE
  5
1CD
330
37
100
AcDbEntity
  8
0
  6
Continuous
 62
     3
100
AcDbLine
 10
249.4071690450616
 20
116.1721021163645
 30
0.0
 11
258.5071690450616
 21
116.1721021163645
 31
0.0
  0
LINE
  5
1CE
330
37
100
AcDbEntity
  8
0
  6
Continuous
 62
     3
100
AcDbLine
 10
258.5071690450616
 20
116.4492774326645
 30
0.0
 11
249.4071690450616
 21
116.4492774326645
 31
0.0
  0
LINE
  5
1CF
330
37
100
AcDbEntity
  8
0
  6
Continuous
 62
     7
100
AcDbLine
 10
245.9071690450616
 20
116.8219321109645
 30
0.0
 11
264.3071690450615
 21
116.8219321109645
 31
0.0
  0
LINE
  5
1D0
330
37
100
AcDbEntity
  8
0
  6
Continuous
 62
     7
100
AcDbLine
 10
217.4571690450616
 20
116.8949342114645
 30
0.0
 11
229.7571690450616
 21
116.8949342114645
 31
0.0
  0
LINE
  5
1D1
330
37
100
AcDbEntity
  8
0
  6
Continuous
 62
     7
100
AcDbLine
 10
264.4316061359616
 20
116.9120898374645
 30
0.0
 11
264.3071690450615
 21
116.9120898374645
 31
0.0
  0
LINE
  5
1D2
330
37
100
AcDbEntity
  8
0
  6
Continuous
 62
     7
100
AcDbLine
 10
245.9071690450616
 20
116.9120898374645
 30
0.0
 11
245.7827319541616
 21
116.9120898374645
 31
0.0
  0
LINE
  5
1D3
330
37
100
AcDbEntity
  8
0
  6
Continuous
 62
     7
100
AcDbLine
 10
218.3571690450616
 20
117.4949342114645
 30
0.0
 11
228.8571690450616
 21
117.4949342114645
 31
0.0
  0
LINE
  5
1D4
330
37
100
AcDbEntity
  8
0
  6
Continuous
 62
     7
100
AcDbLine
 10
278.8373275060616
 20
117.6833617710645
 30
0.0
 11
278.9071690450616
 21
117.6833617710645
 31
0.0
  0
LINE
  5
1D5
330
37
100
AcDbEntity
  8
0
  6
Continuous
 62
     7
100
AcDbLine
 10
264.4071690450616
 20
117.7150968483645
 30
0.0
 11
264.3071690450615
 21
117.7150968483645
 31
0.0
  0
LINE
  5
1D6
330
37
100
AcDbEntity
  8
0
  6
Continuous
 62
     7
100
AcDbLine
 10
245.9071690450616
 20
117.7150968483645
 30
0.0
 11
245.8071690450615
 21
117.7150968483645
 31
0.0
  0
LINE
  5
1D7
330
37
100
AcDbEntity
  8
0
  6
Continuous
 62
     7
100
AcDbLine
 10
228.3918987009615
 20
117.7449342114645
 30
0.0
 11
218.7571703962616
 21
117.7449342114645
 31
0.0
  0
LINE
  5
1D8
330
37
100
AcDbEntity
  8
0
  6
Continuous
 62
     7
100
AcDbLine
 10
228.5917655477616
 20
117.9449342114645
 30
0.0
 11
218.5571690450615
 21
117.9449342114645
 31
0.0
  0
LINE
  5
1D9
330
37
100
AcDbEntity
  8
0
  6
Continuous
 62
     7
100
AcDbLine
 10
266.8023534864616
 20
118.0324109844645
 30
0.0
 11
269.8023534864616
 21
118.0324109844645
 31
0.0
  0
LINE
  5
1DA
330
37
100
AcDbEntity
  8
0
  6
Continuous
 62
     7
100
AcDbLine
 10
266.4879068107616
 20
118.1371413740645
 30
0.0
 11
266.8759579550615
 21
118.1371413740645
 31
0.0
  0
LINE
  5
1DB
330
37
100
AcDbEntity
  8
0
  6
Continuous
 62
     7
100
AcDbLine
 10
266.8759579550615
 20
119.1276805949645
 30
0.0
 11
266.4879068107616
 21
119.1276805949645
 31
0.0
  0
LINE
  5
1DC
330
37
100
AcDbEntity
  8
0
  6
Continuous
 62
     7
100
AcDbLine
 10
266.8023534864616
 20
119.2324109844645
 30
0.0
 11
269.8023534864616
 21
119.2324109844645
 31
0.0
  0
LINE
  5
1DD
330
37
100
AcDbEntity
  8
0
  6
Continuous
 62
     7
100
AcDbLine
 10
244.2174119781616
 20
119.3221021163645
 30
0.0
 11
244.3071690450615
 21
119.3221021163645
 31
0.0
  0
LINE
  5
1DE
330
37
100
AcDbEntity
  8
0
  6
Continuous
 62
     7
100
AcDbLine
 10
222.0562561944615
 20
120.6199342114645
 30
0.0
 11
220.1714494421616
 21
120.6199342114645
 31
0.0
  0
LINE
  5
1DF
330
37
100
AcDbEntity
  8
0
  6
Continuous
 62
     7
100
AcDbLine
 10
263.5071690450616
 20
120.6965042799645
 30
0.0
 11
246.7071690450616
 21
120.6965042799645
 31
0.0
  0
LINE
  5
1E0
330
37
100
AcDbEntity
  8
0
  6
Continuous
 62
     7
100
AcDbLine
 10
222.0562561944615
 20
120.8699342114645
 30
0.0
 11
220.1714494421616
 21
120.8699342114645
 31
0.0
  0
LINE
  5
1E1
330
37
100
AcDbEntity
  8
0
  6
Continuous
 62
     7
100
AcDbLine
 10
218.5571690450615
 20
123.5449342114645
 30
0.0
 11
228.5917655477616
 21
123.5449342114645
 31
0.0
  0
LINE
  5
1E2
330
37
100
AcDbEntity
  8
0
  6
Continuous
 62
     7
100
AcDbLine
 10
218.7571703962616
 20
123.7449342114645
 30
0.0
 11
228.3917946703616
 21
123.7449342114645
 31
0.0
  0
LINE
  5
1E3
330
37
100
AcDbEntity
  8
0
  6
Continuous
 62
     7
100
AcDbLine
 10
228.8571690450616
 20
123.9949342114645
 30
0.0
 11
218.3571690450616
 21
123.9949342114645
 31
0.0
  0
LINE
  5
1E4
330
37
100
AcDbEntity
  8
0
  6
Continuous
 62
     7
100
AcDbLine
 10
270.4163552706616
 20
124.0286267741645
 30
0.0
 11
271.3979828379615
 21
124.0286267741645
 31
0.0
  0
LINE
  5
1E5
330
37
100
AcDbEntity
  8
0
  6
Continuous
 62
     7
100
AcDbLine
 10
270.5071690450616
 20
124.2324109844645
 30
0.0
 11
271.3071690450615
 21
124.2324109844645
 31
0.0
  0
LINE
  5
1E6
330
37
100
AcDbEntity
  8
0
  6
Continuous
 62
     7
100
AcDbLine
 10
274.0685904733616
 20
124.3078603352645
 30
0.0
 11
274.0817196943616
 21
124.3078603352645
 31
0.0
  0
LINE
  5
1E7
330
37
100
AcDbEntity
  8
0
  6
Continuous
 62
     7
100
AcDbLine
 10
229.7571690450616
 20
124.5949342114645
 30
0.0
 11
217.4571690450616
 21
124.5949342114645
 31
0.0
  0
LINE
  5
1E8
330
37
100
AcDbEntity
  8
0
  6
Continuous
 62
     7
100
AcDbLine
 10
272.0584479565616
 20
124.6286267741645
 30
0.0
 11
271.5109532553615
 21
124.6286267741645
 31
0.0
  0
LINE
  5
1E9
330
37
100
AcDbEntity
  8
0
  6
Continuous
 62
     7
100
AcDbLine
 10
270.3033848347616
 20
124.6286267741645
 30
0.0
 11
269.7558900999616
 21
124.6286267741645
 31
0.0
  0
LINE
  5
1EA
330
37
100
AcDbEntity
  8
0
  6
Continuous
 62
     7
100
AcDbLine
 10
269.9071690450615
 20
124.8324109844645
 30
0.0
 11
270.5071690450616
 21
124.8324109844645
 31
0.0
  0
LINE
  5
1EB
330
37
100
AcDbEntity
  8
0
  6
Continuous
 62
     7
100
AcDbLine
 10
271.3071690450615
 20
124.8324109844645
 30
0.0
 11
271.9071690450615
 21
124.8324109844645
 31
0.0
  0
LINE
  5
1EC
330
37
100
AcDbEntity
  8
0
  6
Continuous
 62
     7
100
AcDbLine
 10
271.9071690450615
 20
125.6324109844645
 30
0.0
 11
271.3071690450615
 21
125.6324109844645
 31
0.0
  0
LINE
  5
1ED
330
37
100
AcDbEntity
  8
0
  6
Continuous
 62
     7
100
AcDbLine
 10
270.5071690450616
 20
125.6324109844645
 30
0.0
 11
269.9071690450615
 21
125.6324109844645
 31
0.0
  0
LINE
  5
1EE
330
37
100
AcDbEntity
  8
0
  6
Continuous
 62
     7
100
AcDbLine
 10
272.0584479901615
 20
125.8361951948645
 30
0.0
 11
271.5109532553615
 21
125.8361951948645
 31
0.0
  0
LINE
  5
1EF
330
37
100
AcDbEntity
  8
0
  6
Continuous
 62
     7
100
AcDbLine
 10
270.3033848347616
 20
125.8361951948645
 30
0.0
 11
269.7558901335616
 21
125.8361951948645
 31
0.0
  0
LINE
  5
1F0
330
37
100
AcDbEntity
  8
0
  6
Continuous
 62
     7
100
AcDbLine
 10
231.1571690450616
 20
125.9949342114645
 30
0.0
 11
216.0571690450615
 21
125.9949342114645
 31
0.0
  0
LINE
  5
1F1
330
37
100
AcDbEntity
  8
0
  6
Continuous
 62
     7
100
AcDbLine
 10
267.7457476166615
 20
126.1569616337645
 30
0.0
 11
267.7326183957616
 21
126.1569616337645
 31
0.0
  0
LINE
  5
1F2
330
37
100
AcDbEntity
  8
0
  6
Continuous
 62
     7
100
AcDbLine
 10
271.3071690450615
 20
126.2324109844645
 30
0.0
 11
270.5071690450616
 21
126.2324109844645
 31
0.0
  0
LINE
  5
1F3
330
37
100
AcDbEntity
  8
0
  6
Continuous
 62
     7
100
AcDbLine
 10
271.3979828194615
 20
126.4361951948645
 30
0.0
 11
270.4163552521616
 21
126.4361951948645
 31
0.0
  0
LINE
  5
1F4
330
37
100
AcDbEntity
  8
0
  6
Continuous
 62
     7
100
AcDbLine
 10
292.5071690450616
 20
126.4949342114645
 30
0.0
 11
280.7071690450616
 21
126.4949342114645
 31
0.0
  0
LINE
  5
1F5
330
37
100
AcDbEntity
  8
0
  6
Continuous
 62
     7
100
AcDbLine
 10
269.8023534864616
 20
118.0324109844645
 30
0.0
 11
266.8759579550615
 21
118.1371413740645
 31
0.0
  0
LINE
  5
1F6
330
37
100
AcDbEntity
  8
0
  6
Continuous
 62
     7
100
AcDbLine
 10
266.8023534864616
 20
118.0324109844645
 30
0.0
 11
266.4879068107616
 21
118.1371413740645
 31
0.0
  0
LINE
  5
1F7
330
37
100
AcDbEntity
  8
0
  6
Continuous
 62
     7
100
AcDbLine
 10
216.0571690450615
 20
125.9949342114645
 30
0.0
 11
217.4571690450616
 21
124.5949342114645
 31
0.0
  0
LINE
  5
1F8
330
37
100
AcDbEntity
  8
0
  6
Continuous
 62
     7
100
AcDbLine
 10
231.1571690450616
 20
115.4949342114645
 30
0.0
 11
229.7571690450616
 21
116.8949342114645
 31
0.0
  0
LINE
  5
1F9
330
37
100
AcDbEntity
  8
0
  6
Continuous
 62
     7
100
AcDbLine
 10
269.8023534864616
 20
132.4324109844645
 30
0.0
 11
266.8759579550615
 21
132.3276805949645
 31
0.0
  0
LINE
  5
1FA
330
37
100
AcDbEntity
  8
0
  6
Continuous
 62
     7
100
AcDbLine
 10
246.7071690450616
 20
131.0997352423645
 30
0.0
 11
263.5071690450616
 21
131.0997352423645
 31
0.0
  0
LINE
  5
1FB
330
37
100
AcDbEntity
  8
0
  6
Continuous
 62
     7
100
AcDbLine
 10
246.7071690450616
 20
131.1570928860645
 30
0.0
 11
263.5071690450616
 21
131.1570928860645
 31
0.0
  0
LINE
  5
1FC
330
37
100
AcDbEntity
  8
0
  6
Continuous
 62
     7
100
AcDbLine
 10
266.8023534864616
 20
131.2324109844645
 30
0.0
 11
269.8023534864616
 21
131.2324109844645
 31
0.0
  0
LINE
  5
1FD
330
37
100
AcDbEntity
  8
0
  6
Continuous
 62
     7
100
AcDbLine
 10
266.4879068107616
 20
131.3371413740645
 30
0.0
 11
266.8759579550615
 21
131.3371413740645
 31
0.0
  0
LINE
  5
1FE
330
37
100
AcDbEntity
  8
0
  6
Continuous
 62
     7
100
AcDbLine
 10
264.3071690450615
 20
131.6485841125645
 30
0.0
 11
245.9071690450616
 21
131.6485841125645
 31
0.0
  0
LINE
  5
1FF
330
37
100
AcDbEntity
  8
0
  6
Continuous
 62
     7
100
AcDbLine
 10
266.8759579550615
 20
132.3276805949645
 30
0.0
 11
266.4879068107616
 21
132.3276805949645
 31
0.0
  0
LINE
  5
200
330
37
100
AcDbEntity
  8
0
  6
Continuous
 62
     7
100
AcDbLine
 10
266.8023534864616
 20
132.4324109844645
 30
0.0
 11
269.8023534864616
 21
132.4324109844645
 31
0.0
  0
LINE
  5
201
330
37
100
AcDbEntity
  8
0
  6
Continuous
 62
     7
100
AcDbLine
 10
264.3071690450615
 20
132.5663064107645
 30
0.0
 11
245.9071690450616
 21
132.5663064107645
 31
0.0
  0
LINE
  5
202
330
37
100
AcDbEntity
  8
0
  6
Continuous
 62
     7
100
AcDbLine
 10
245.8071690450615
 20
132.7055792588645
 30
0.0
 11
264.4071690450616
 21
132.7055792588645
 31
0.0
  0
LINE
  5
203
330
37
100
AcDbEntity
  8
0
  6
Continuous
 62
     7
100
AcDbLine
 10
245.7827319541616
 20
132.7205859125645
 30
0.0
 11
264.4316061359616
 21
132.7205859125645
 31
0.0
  0
LINE
  5
204
330
37
100
AcDbEntity
  8
0
  6
Continuous
 62
     7
100
AcDbLine
 10
278.8373275060616
 20
132.7814601979645
 30
0.0
 11
278.9071690450616
 21
132.7814601979645
 31
0.0
  0
LINE
  5
205
330
37
100
AcDbEntity
  8
0
  6
Continuous
 62
     7
100
AcDbLine
 10
244.2174119781616
 20
132.9221021163645
 30
0.0
 11
244.3071690450615
 21
132.9221021163645
 31
0.0
  0
LINE
  5
206
330
37
100
AcDbEntity
  8
0
  6
Continuous
 62
     7
100
AcDbLine
 10
265.8248780155616
 20
134.0602994069645
 30
0.0
 11
244.3665162658616
 21
134.0602994069645
 31
0.0
  0
LINE
  5
207
330
37
100
AcDbEntity
  8
0
  6
Continuous
 62
     7
100
AcDbLine
 10
264.0372115705616
 20
134.2017831948645
 30
0.0
 11
244.3071690450615
 21
134.2017831948645
 31
0.0
  0
LINE
  5
208
330
37
100
AcDbEntity
  8
0
  6
Continuous
 62
     7
100
AcDbLine
 10
276.9071690450616
 20
134.7116186589645
 30
0.0
 11
266.8023534864616
 21
134.7116186589645
 31
0.0
  0
LINE
  5
209
330
37
100
AcDbEntity
  8
0
  6
Continuous
 62
     7
100
AcDbLine
 10
276.9071690450616
 20
134.7814601979645
 30
0.0
 11
264.9071690450615
 21
134.7814601979645
 31
0.0
  0
LINE
  5
20A
330
37
100
AcDbEntity
  8
0
  6
Continuous
 62
     7
100
AcDbLine
 10
238.0297562729615
 20
138.1221021163645
 30
0.0
 11
242.0297562729615
 21
138.1221021163645
 31
0.0
  0
LINE
  5
20B
330
37
100
AcDbEntity
  8
0
  6
Continuous
 62
     7
100
AcDbLine
 10
269.8023534864616
 20
131.2324109844645
 30
0.0
 11
266.8759579550615
 21
131.3371413740645
 31
0.0
  0
LINE
  5
20C
330
37
100
AcDbEntity
  8
0
  6
Continuous
 62
     7
100
AcDbLine
 10
266.8023534864616
 20
131.2324109844645
 30
0.0
 11
266.4879068107616
 21
131.3371413740645
 31
0.0
  0
LINE
  5
20D
330
37
100
AcDbEntity
  8
0
  6
Continuous
 62
     7
100
AcDbLine
 10
245.8071690450615
 20
132.7055792588645
 30
0.0
 11
245.7827319541616
 21
132.7205859125645
 31
0.0
  0
LINE
  5
20E
330
37
100
AcDbEntity
  8
0
  6
Continuous
 62
     7
100
AcDbLine
 10
264.9071690450615
 20
115.6833617710645
 30
0.0
 11
264.7119972286616
 21
115.8134102123645
 31
0.0
  0
LINE
  5
20F
330
37
100
AcDbEntity
  8
0
  6
Continuous
 62
     7
100
AcDbLine
 10
266.8023534864616
 20
115.7532033099645
 30
0.0
 11
266.4890195361615
 21
115.9619864868645
 31
0.0
  0
LINE
  5
210
330
37
100
AcDbEntity
  8
0
  6
Continuous
 62
     7
100
AcDbLine
 10
229.8663552706615
 20
149.1911500010645
 30
0.0
 11
230.8479828379616
 21
149.1911500010645
 31
0.0
  0
LINE
  5
211
330
37
100
AcDbEntity
  8
0
  6
Continuous
 62
     7
100
AcDbLine
 10
279.3663552706616
 20
149.1911500010645
 30
0.0
 11
280.3479828379616
 21
149.1911500010645
 31
0.0
  0
LINE
  5
212
330
37
100
AcDbEntity
  8
0
  6
Continuous
 62
     7
100
AcDbLine
 10
229.9571690450616
 20
149.3949342114645
 30
0.0
 11
230.7571690450616
 21
149.3949342114645
 31
0.0
  0
LINE
  5
213
330
37
100
AcDbEntity
  8
0
  6
Continuous
 62
     7
100
AcDbLine
 10
279.4571690450616
 20
149.3949342114645
 30
0.0
 11
280.2571690450616
 21
149.3949342114645
 31
0.0
  0
LINE
  5
214
330
37
100
AcDbEntity
  8
0
  6
Continuous
 62
     7
100
AcDbLine
 10
281.0084479565615
 20
149.7911500010645
 30
0.0
 11
280.4609532553616
 21
149.7911500010645
 31
0.0
  0
LINE
  5
215
330
37
100
AcDbEntity
  8
0
  6
Continuous
 62
     7
100
AcDbLine
 10
279.2533848347616
 20
149.7911500010645
 30
0.0
 11
278.7058900999616
 21
149.7911500010645
 31
0.0
  0
LINE
  5
216
330
37
100
AcDbEntity
  8
0
  6
Continuous
 62
     7
100
AcDbLine
 10
231.5084479565616
 20
149.7911500010645
 30
0.0
 11
230.9609532553616
 21
149.7911500010645
 31
0.0
  0
LINE
  5
217
330
37
100
AcDbEntity
  8
0
  6
Continuous
 62
     7
100
AcDbLine
 10
229.7533848347616
 20
149.7911500010645
 30
0.0
 11
229.2058900999616
 21
149.7911500010645
 31
0.0
  0
LINE
  5
218
330
37
100
AcDbEntity
  8
0
  6
Continuous
 62
     7
100
AcDbLine
 10
229.3571690450616
 20
149.9949342114645
 30
0.0
 11
229.9571690450616
 21
149.9949342114645
 31
0.0
  0
LINE
  5
219
330
37
100
AcDbEntity
  8
0
  6
Continuous
 62
     7
100
AcDbLine
 10
230.7571690450616
 20
149.9949342114645
 30
0.0
 11
231.3571690450616
 21
149.9949342114645
 31
0.0
  0
LINE
  5
21A
330
37
100
AcDbEntity
  8
0
  6
Continuous
 62
     7
100
AcDbLine
 10
278.8571690450616
 20
149.9949342114645
 30
0.0
 11
279.4571690450616
 21
149.9949342114645
 31
0.0
  0
LINE
  5
21B
330
37
100
AcDbEntity
  8
0
  6
Continuous
 62
     7
100
AcDbLine
 10
280.2571690450616
 20
149.9949342114645
 30
0.0
 11
280.8571690450616
 21
149.9949342114645
 31
0.0
  0
LINE
  5
21C
330
37
100
AcDbEntity
  8
0
  6
Continuous
 62
     7
100
AcDbLine
 10
280.8571690450616
 20
150.7949342114645
 30
0.0
 11
280.2571690450616
 21
150.7949342114645
 31
0.0
  0
LINE
  5
21D
330
37
100
AcDbEntity
  8
0
  6
Continuous
 62
     7
100
AcDbLine
 10
279.4571690450616
 20
150.7949342114645
 30
0.0
 11
278.8571690450616
 21
150.7949342114645
 31
0.0
  0
LINE
  5
21E
330
37
100
AcDbEntity
  8
0
  6
Continuous
 62
     7
100
AcDbLine
 10
231.3571690450616
 20
150.7949342114645
 30
0.0
 11
230.7571690450616
 21
150.7949342114645
 31
0.0
  0
LINE
  5
21F
330
37
100
AcDbEntity
  8
0
  6
Continuous
 62
     7
100
AcDbLine
 10
229.9571690450616
 20
150.7949342114645
 30
0.0
 11
229.3571690450616
 21
150.7949342114645
 31
0.0
  0
LINE
  5
220
330
37
100
AcDbEntity
  8
0
  6
Continuous
 62
     7
100
AcDbLine
 10
281.0084479901616
 20
150.9987184217645
 30
0.0
 11
280.4609532553616
 21
150.9987184217645
 31
0.0
  0
LINE
  5
221
330
37
100
AcDbEntity
  8
0
  6
Continuous
 62
     7
100
AcDbLine
 10
279.2533848347616
 20
150.9987184217645
 30
0.0
 11
278.7058901335615
 21
150.9987184217645
 31
0.0
  0
LINE
  5
222
330
37
100
AcDbEntity
  8
0
  6
Continuous
 62
     7
100
AcDbLine
 10
231.5084479901616
 20
150.9987184217645
 30
0.0
 11
230.9609532553616
 21
150.9987184217645
 31
0.0
  0
LINE
  5
223
330
37
100
AcDbEntity
  8
0
  6
Continuous
 62
     7
100
AcDbLine
 10
229.7533848347616
 20
150.9987184217645
 30
0.0
 11
229.2058901335615
 21
150.9987184217645
 31
0.0
  0
LINE
  5
224
330
37
100
AcDbEntity
  8
0
  6
Continuous
 62
     7
100
AcDbLine
 10
280.2571690450616
 20
151.3949342114645
 30
0.0
 11
279.4571690450616
 21
151.3949342114645
 31
0.0
  0
LINE
  5
225
330
37
100
AcDbEntity
  8
0
  6
Continuous
 62
     7
100
AcDbLine
 10
230.7571690450616
 20
151.3949342114645
 30
0.0
 11
229.9571690450616
 21
151.3949342114645
 31
0.0
  0
LINE
  5
226
330
37
100
AcDbEntity
  8
0
  6
Continuous
 62
     7
100
AcDbLine
 10
280.3479828194615
 20
151.5987184217645
 30
0.0
 11
279.3663552521616
 21
151.5987184217645
 31
0.0
  0
LINE
  5
227
330
37
100
AcDbEntity
  8
0
  6
Continuous
 62
     7
100
AcDbLine
 10
230.8479828194616
 20
151.5987184217645
 30
0.0
 11
229.8663552521616
 21
151.5987184217645
 31
0.0
  0
LINE
  5
228
330
37
100
AcDbEntity
  8
0
  6
Continuous
 62
     7
100
AcDbLine
 10
229.1535342249616
 20
150.9985690315645
 30
0.0
 11
229.3571690450616
 21
150.7949342114645
 31
0.0
  0
LINE
  5
229
330
37
100
AcDbEntity
  8
0
  6
Continuous
 62
     7
100
AcDbLine
 10
230.9608038644616
 20
149.1912993920645
 30
0.0
 11
230.7571690450616
 21
149.3949342114645
 31
0.0
  0
LINE
  5
22A
330
37
100
AcDbEntity
  8
0
  6
Continuous
 62
     7
100
AcDbLine
 10
230.7571690450616
 20
149.9949342114645
 30
0.0
 11
230.9609532553616
 21
149.7911500010645
 31
0.0
  0
LINE
  5
22B
330
37
100
AcDbEntity
  8
0
  6
Continuous
 62
     7
100
AcDbLine
 10
229.9571690450616
 20
150.7949342114645
 30
0.0
 11
229.7533848347616
 21
150.9987184217645
 31
0.0
  0
LINE
  5
22C
330
37
100
AcDbEntity
  8
0
  6
Continuous
 62
     7
100
AcDbLine
 10
229.7535342256616
 20
151.5985690308645
 30
0.0
 11
229.9571690450616
 21
151.3949342114645
 31
0.0
  0
LINE
  5
22D
330
37
100
AcDbEntity
  8
0
  6
Continuous
 62
     7
100
AcDbLine
 10
231.5608038651616
 20
149.7912993913645
 30
0.0
 11
231.3571690450616
 21
149.9949342114645
 31
0.0
  0
LINE
  5
22E
330
37
100
AcDbEntity
  8
0
  6
Continuous
 62
     7
100
AcDbLine
 10
267.7432109801616
 20
126.1463690493645
 30
0.0
 11
267.7326183957616
 21
126.1569616337645
 31
0.0
  0
LINE
  5
22F
330
37
100
AcDbEntity
  8
0
  6
Continuous
 62
     7
100
AcDbLine
 10
269.7035342249616
 20
125.8360458045645
 30
0.0
 11
269.9071690450615
 21
125.6324109844645
 31
0.0
  0
LINE
  5
230
330
37
100
AcDbEntity
  8
0
  6
Continuous
 62
     7
100
AcDbLine
 10
271.5108038644615
 20
124.0287761650645
 30
0.0
 11
271.3071690450615
 21
124.2324109844645
 31
0.0
  0
LINE
  5
231
330
37
100
AcDbEntity
  8
0
  6
Continuous
 62
     7
100
AcDbLine
 10
271.3071690450615
 20
124.8324109844645
 30
0.0
 11
271.5109532553615
 21
124.6286267741645
 31
0.0
  0
LINE
  5
232
330
37
100
AcDbEntity
  8
0
  6
Continuous
 62
     7
100
AcDbLine
 10
270.5071690450616
 20
125.6324109844645
 30
0.0
 11
270.3033848347616
 21
125.8361951948645
 31
0.0
  0
LINE
  5
233
330
37
100
AcDbEntity
  8
0
  6
Continuous
 62
     7
100
AcDbLine
 10
270.3035342256616
 20
126.4360458038645
 30
0.0
 11
270.5071690450616
 21
126.2324109844645
 31
0.0
  0
LINE
  5
234
330
37
100
AcDbEntity
  8
0
  6
Continuous
 62
     7
100
AcDbLine
 10
272.1108038651615
 20
124.6287761643645
 30
0.0
 11
271.9071690450615
 21
124.8324109844645
 31
0.0
  0
LINE
  5
235
330
37
100
AcDbEntity
  8
0
  6
Continuous
 62
     7
100
AcDbLine
 10
274.0711271099616
 20
124.3184529196645
 30
0.0
 11
274.0817196943616
 21
124.3078603352645
 31
0.0
  0
LINE
  5
236
330
37
100
AcDbEntity
  8
0
  6
Continuous
 62
     7
100
AcDbLine
 10
242.0297562729615
 20
138.1221021163645
 30
0.0
 11
242.4853611705615
 21
137.2108923211645
 31
0.0
  0
LINE
  5
237
330
37
100
AcDbEntity
  8
0
  6
Continuous
 62
     7
100
AcDbLine
 10
216.0571690450615
 20
125.9949342114645
 30
0.0
 11
216.0571690450615
 21
115.4949342114645
 31
0.0
  0
LINE
  5
238
330
37
100
AcDbEntity
  8
0
  6
Continuous
 62
     7
100
AcDbLine
 10
217.4571690450616
 20
124.5949342114645
 30
0.0
 11
217.4571690450616
 21
116.8949342114645
 31
0.0
  0
LINE
  5
239
330
37
100
AcDbEntity
  8
0
  6
Continuous
 62
     7
100
AcDbLine
 10
218.3571690450616
 20
123.9949342114645
 30
0.0
 11
218.3571690450616
 21
117.4949342114645
 31
0.0
  0
LINE
  5
23A
330
37
100
AcDbEntity
  8
06___PRT_ALL_SURFS
  6
Continuous
 62
     7
100
AcDbLine
 10
218.5571690450615
 20
117.9449342114645
 30
0.0
 11
218.5571690450615
 21
123.5449342114645
 31
0.0
  0
LINE
  5
23B
330
37
100
AcDbEntity
  8
0
  6
Continuous
 62
     7
100
AcDbLine
 10
218.6606410219615
 20
117.9449342114645
 30
0.0
 11
218.6606410219615
 21
123.5449342114645
 31
0.0
  0
LINE
  5
23C
330
37
100
AcDbEntity
  8
0
  6
Continuous
 62
     7
100
AcDbLine
 10
219.5613920286616
 20
123.5449342114645
 30
0.0
 11
219.5613920286616
 21
117.9449342114645
 31
0.0
  0
LINE
  5
23D
330
37
100
AcDbEntity
  8
0
  6
Continuous
 62
     7
100
AcDbLine
 10
219.8261208078616
 20
123.5449342114645
 30
0.0
 11
219.8261208078616
 21
117.9449342114645
 31
0.0
  0
LINE
  5
23E
330
37
100
AcDbEntity
  8
0
  6
Continuous
 62
     7
100
AcDbLine
 10
220.1714494421616
 20
120.6199342114645
 30
0.0
 11
220.1714494421616
 21
120.8699342114645
 31
0.0
  0
LINE
  5
23F
330
37
100
AcDbEntity
  8
0
  6
Continuous
 62
     7
100
AcDbLine
 10
221.3071690450615
 20
177.3949342114645
 30
0.0
 11
221.3071690450615
 21
179.8949342114645
 31
0.0
  0
LINE
  5
240
330
37
100
AcDbEntity
  8
0
  6
Continuous
 62
     7
100
AcDbLine
 10
222.0467879213615
 20
120.6199342114645
 30
0.0
 11
222.0467879213615
 21
120.8699342114645
 31
0.0
  0
LINE
  5
241
330
37
100
AcDbEntity
  8
0
  6
Continuous
 62
     7
100
AcDbLine
 10
222.0562561944615
 20
120.6199342114645
 30
0.0
 11
222.0562561944615
 21
120.8699342114645
 31
0.0
  0
LINE
  5
242
330
37
100
AcDbEntity
  8
0
  6
Continuous
 62
     7
100
AcDbLine
 10
222.8571690450616
 20
179.8949342114645
 30
0.0
 11
222.8571690450616
 21
177.8949342114645
 31
0.0
  0
LINE
  5
243
330
37
100
AcDbEntity
  8
0
  6
Continuous
 62
     7
100
AcDbLine
 10
224.3571690450616
 20
177.8949342114645
 30
0.0
 11
224.3571690450616
 21
179.8949342114645
 31
0.0
  0
LINE
  5
244
330
37
100
AcDbEntity
  8
0
  6
Continuous
 62
     7
100
AcDbLine
 10
224.6571690450616
 20
177.8949342114645
 30
0.0
 11
224.6571690450616
 21
177.3949342114645
 31
0.0
  0
LINE
  5
245
330
37
100
AcDbEntity
  8
0
  6
Continuous
 62
     7
100
AcDbLine
 10
225.7071690450616
 20
177.3949342114645
 30
0.0
 11
225.7071690450616
 21
179.8949342114645
 31
0.0
  0
LINE
  5
246
330
37
100
AcDbEntity
  8
0
  6
Continuous
 62
     7
100
AcDbLine
 10
222.8571690450616
 20
177.8949342114645
 30
0.0
 11
224.6571690450616
 21
177.8949342114645
 31
0.0
  0
LINE
  5
247
330
37
100
AcDbEntity
  8
0
  6
Continuous
 62
     7
100
AcDbLine
 10
230.8571690450616
 20
177.8949342114645
 30
0.0
 11
232.6571690450616
 21
177.8949342114645
 31
0.0
  0
LINE
  5
248
330
37
100
AcDbEntity
  8
0
  6
Continuous
 62
     7
100
AcDbLine
 10
261.7571690450616
 20
179.8949342114645
 30
0.0
 11
249.7571690450616
 21
179.8949342114645
 31
0.0
  0
LINE
  5
249
330
37
100
AcDbEntity
  8
0
  6
Continuous
 62
     7
100
AcDbLine
 10
221.3071690450615
 20
179.8949342114645
 30
0.0
 11
234.2071690450616
 21
179.8949342114645
 31
0.0
  0
LINE
  5
24A
330
37
100
AcDbEntity
  8
0
  6
Continuous
 62
     7
100
AcDbLine
 10
278.6535342249616
 20
150.9985690315645
 30
0.0
 11
278.8571690450616
 21
150.7949342114645
 31
0.0
  0
LINE
  5
24B
330
37
100
AcDbEntity
  8
0
  6
Continuous
 62
     7
100
AcDbLine
 10
280.4608038644616
 20
149.1912993920645
 30
0.0
 11
280.2571690450616
 21
149.3949342114645
 31
0.0
  0
LINE
  5
24C
330
37
100
AcDbEntity
  8
0
  6
Continuous
 62
     7
100
AcDbLine
 10
280.2571690450616
 20
149.9949342114645
 30
0.0
 11
280.4609532553616
 21
149.7911500010645
 31
0.0
  0
LINE
  5
24D
330
37
100
AcDbEntity
  8
0
  6
Continuous
 62
     7
100
AcDbLine
 10
279.4571690450616
 20
150.7949342114645
 30
0.0
 11
279.2533848347616
 21
150.9987184217645
 31
0.0
  0
LINE
  5
24E
330
37
100
AcDbEntity
  8
0
  6
Continuous
 62
     7
100
AcDbLine
 10
244.3665162658616
 20
134.0602994069645
 30
0.0
 11
244.3071690450615
 21
134.2017831948645
 31
0.0
  0
LINE
  5
24F
330
37
100
AcDbEntity
  8
0
  6
Continuous
 62
     7
100
AcDbLine
 10
244.2174119781616
 20
132.9221021163645
 30
0.0
 11
244.3071690450615
 21
132.5630738485645
 31
0.0
  0
LINE
  5
250
330
37
100
AcDbEntity
  8
0
  6
Continuous
 62
     7
100
AcDbLine
 10
228.3570959742616
 20
123.7449342114645
 30
0.0
 11
228.3572082741616
 21
117.9449342114645
 31
0.0
  0
LINE
  5
251
330
37
100
AcDbEntity
  8
0
  6
Continuous
 62
     7
100
AcDbLine
 10
228.5570668515616
 20
123.5449342114645
 30
0.0
 11
228.5570668515616
 21
117.9449342114645
 31
0.0
  0
LINE
  5
252
330
37
100
AcDbEntity
  8
0
  6
Continuous
 62
     7
100
AcDbLine
 10
228.5917655477616
 20
117.9449342114645
 30
0.0
 11
228.5917655477616
 21
123.5449342114645
 31
0.0
  0
LINE
  5
253
330
37
100
AcDbEntity
  8
06___PRT_ALL_SURFS
  6
Continuous
 62
     7
100
AcDbLine
 10
228.5919111608615
 20
117.9449342114645
 30
0.0
 11
228.5919111608615
 21
123.5449342114645
 31
0.0
  0
LINE
  5
254
330
37
100
AcDbEntity
  8
0
  6
Continuous
 62
     7
100
AcDbLine
 10
228.8571690450616
 20
117.4949342114645
 30
0.0
 11
228.8571690450616
 21
123.9949342114645
 31
0.0
  0
LINE
  5
255
330
37
100
AcDbEntity
  8
0
  6
Continuous
 62
     7
100
AcDbLine
 10
229.1533848347616
 20
150.8857521183645
 30
0.0
 11
229.1533848347616
 21
149.9041162831645
 31
0.0
  0
LINE
  5
256
330
37
100
AcDbEntity
  8
0
  6
Continuous
 62
     7
100
AcDbLine
 10
229.3571690450616
 20
150.7949342114645
 30
0.0
 11
229.3571690450616
 21
149.9949342114645
 31
0.0
  0
LINE
  5
257
330
37
100
AcDbEntity
  8
0
  6
Continuous
 62
     7
100
AcDbLine
 10
229.7533848347616
 20
149.2436547775645
 30
0.0
 11
229.7533848347616
 21
149.7911500010645
 31
0.0
  0
LINE
  5
258
330
37
100
AcDbEntity
  8
0
  6
Continuous
 62
     7
100
AcDbLine
 10
229.7533848347616
 20
150.9987184217645
 30
0.0
 11
229.7533848347616
 21
151.5462136615645
 31
0.0
  0
LINE
  5
259
330
37
100
AcDbEntity
  8
0
  6
Continuous
 62
     7
100
AcDbLine
 10
229.7571690450616
 20
116.8949342114645
 30
0.0
 11
229.7571690450616
 21
124.5949342114645
 31
0.0
  0
LINE
  5
25A
330
37
100
AcDbEntity
  8
0
  6
Continuous
 62
     7
100
AcDbLine
 10
229.8071690450615
 20
177.3949342114645
 30
0.0
 11
229.8071690450615
 21
179.8949342114645
 31
0.0
  0
LINE
  5
25B
330
37
100
AcDbEntity
  8
0
  6
Continuous
 62
     7
100
AcDbLine
 10
229.9571690450616
 20
151.3949342114645
 30
0.0
 11
229.9571690450616
 21
150.7949342114645
 31
0.0
  0
LINE
  5
25C
330
37
100
AcDbEntity
  8
0
  6
Continuous
 62
     7
100
AcDbLine
 10
229.9571690450616
 20
149.9949342114645
 30
0.0
 11
229.9571690450616
 21
149.3949342114645
 31
0.0
  0
LWPOLYLINE
  5
25D
330
37
100
AcDbEntity
  8
0
  6
Continuous
 62
     7
100
AcDbPolyline
 90
       33
 70
     1
 43
0.0
 10
230.1071690450616
 20
113.3949342114645
 10
230.1071690450616
 20
115.3949342114645
 10
231.3071690450615
 20
115.3949342114645
 10
231.3071690450615
 20
113.3949342114645
 10
278.9071690450616
 20
113.3949342114645
 10
278.9071690450616
 20
115.3949342114645
 10
280.1071690450616
 20
115.3949342114645
 10
280.1071690450616
 20
113.3949342114645
 10
305.3556451842616
 20
113.3949342114645
 42
0.4142135623730951
 10
305.8556451842616
 20
113.8949342114645
 10
305.8556451842616
 20
131.2964580721645
 10
315.3571690450616
 20
131.2964580721645
 42
0.4142135623730951
 10
315.8571690450616
 20
131.7964580721645
 10
315.8571690450616
 20
152.8949342114645
 42
0.4142135623730951
 10
315.3571690450616
 20
153.3949342114645
 10
285.3571690450616
 20
153.3949342114645
 10
285.3571690450616
 20
176.8949342114645
 42
0.4142135623730951
 10
284.8571690450616
 20
177.3949342114645
 10
267.4071690450615
 20
177.3949342114645
 10
267.4071690450615
 20
175.2949342114645
 10
266.0071690450616
 20
175.2949342114645
 10
266.0071690450616
 20
177.3949342114645
 10
216.2071690450616
 20
177.3949342114645
 10
216.2071690450616
 20
175.2949342114645
 10
214.8071690450615
 20
175.2949342114645
 10
214.8071690450615
 20
177.3949342114645
 10
194.8571690450616
 20
177.3949342114645
 42
0.4142135623730951
 10
194.3571690450616
 20
176.8949342114645
 10
194.3571690450616
 20
131.7964580721645
 42
0.4142135623730951
 10
194.8571690450616
 20
131.2964580721645
 10
204.3586929057616
 20
131.2964580721645
 10
204.3586929057616
 20
113.8949342114645
 42
0.4142135623730951
 10
204.8586929057616
 20
113.3949342114645
  0
LINE
  5
25E
330
37
100
AcDbEntity
  8
0
  6
Continuous
 62
     7
100
AcDbLine
 10
230.7571690450616
 20
149.3949342114645
 30
0.0
 11
230.7571690450616
 21
149.9949342114645
 31
0.0
  0
LINE
  5
25F
330
37
100
AcDbEntity
  8
0
  6
Continuous
 62
     7
100
AcDbLine
 10
230.7571690450616
 20
150.7949342114645
 30
0.0
 11
230.7571690450616
 21
151.3949342114645
 31
0.0
  0
LINE
  5
260
330
37
100
AcDbEntity
  8
0
  6
Continuous
 62
     7
100
AcDbLine
 10
230.8571690450616
 20
177.3949342114645
 30
0.0
 11
230.8571690450616
 21
177.8949342114645
 31
0.0
  0
LINE
  5
261
330
37
100
AcDbEntity
  8
0
  6
Continuous
 62
     7
100
AcDbLine
 10
230.9609532553616
 20
149.2436547612645
 30
0.0
 11
230.9609532553616
 21
149.7911500010645
 31
0.0
  0
LINE
  5
262
330
37
100
AcDbEntity
  8
0
  6
Continuous
 62
     7
100
AcDbLine
 10
230.9609532553616
 20
150.9987184217645
 30
0.0
 11
230.9609532553616
 21
151.5462136452645
 31
0.0
  0
LINE
  5
263
330
37
100
AcDbEntity
  8
0
  6
Continuous
 62
     7
100
AcDbLine
 10
231.1571690450616
 20
179.8949342114645
 30
0.0
 11
231.1571690450616
 21
177.8949342114645
 31
0.0
  0
LINE
  5
264
330
37
100
AcDbEntity
  8
0
  6
Continuous
 62
     7
100
AcDbLine
 10
231.1571690450616
 20
115.4949342114645
 30
0.0
 11
231.1571690450616
 21
125.9949342114645
 31
0.0
  0
LINE
  5
265
330
37
100
AcDbEntity
  8
0
  6
Continuous
 62
     7
100
AcDbLine
 10
231.3571690450616
 20
149.9949342114645
 30
0.0
 11
231.3571690450616
 21
150.7949342114645
 31
0.0
  0
LINE
  5
266
330
37
100
AcDbEntity
  8
0
  6
Continuous
 62
     7
100
AcDbLine
 10
231.5609532553616
 20
149.9041163044645
 30
0.0
 11
231.5609532553616
 21
150.8857521397645
 31
0.0
  0
LINE
  5
267
330
37
100
AcDbEntity
  8
0
  6
Continuous
 62
     7
100
AcDbLine
 10
232.6571690450616
 20
179.8949342114645
 30
0.0
 11
232.6571690450616
 21
177.8949342114645
 31
0.0
  0
LINE
  5
268
330
37
100
AcDbEntity
  8
0
  6
Continuous
 62
     7
100
AcDbLine
 10
234.2071690450616
 20
177.3949342114645
 30
0.0
 11
234.2071690450616
 21
179.8949342114645
 31
0.0
  0
LINE
  5
269
330
37
100
AcDbEntity
  8
0
  6
Continuous
 62
     7
100
AcDbLine
 10
238.0297562729615
 20
114.1221021163645
 30
0.0
 11
238.0297562729615
 21
138.1221021163645
 31
0.0
  0
LINE
  5
26A
330
37
100
AcDbEntity
  8
0
  6
Continuous
 62
     7
100
AcDbLine
 10
228.3570959742616
 20
117.7449342114645
 30
0.0
 11
228.3572082741616
 21
117.9449342114645
 31
0.0
  0
LINE
  5
26B
330
37
100
AcDbEntity
  8
0
  6
Continuous
 62
     7
100
AcDbLine
 10
279.2535342256616
 20
151.5985690308645
 30
0.0
 11
279.4571690450616
 21
151.3949342114645
 31
0.0
  0
LINE
  5
26C
330
37
100
AcDbEntity
  8
0
  6
Continuous
 62
     7
100
AcDbLine
 10
281.0608038651616
 20
149.7912993913645
 30
0.0
 11
280.8571690450616
 21
149.9949342114645
 31
0.0
  0
LINE
  5
26D
330
37
100
AcDbEntity
  8
0
  6
Continuous
 62
     7
100
AcDbLine
 10
242.4853611705615
 20
137.2108923211645
 30
0.0
 11
242.4853611705615
 21
115.0333119115645
 31
0.0
  0
LINE
  5
26E
330
37
100
AcDbEntity
  8
0
  6
Continuous
 62
     7
100
AcDbLine
 10
244.2174119781616
 20
132.9221021163645
 30
0.0
 11
244.2174119781616
 21
119.3221021163645
 31
0.0
  0
LINE
  5
26F
330
37
100
AcDbEntity
  8
0
  6
Continuous
 62
     7
100
AcDbLine
 10
244.3071690450615
 20
134.2017831948645
 30
0.0
 11
244.3071690450615
 21
115.8134102123645
 31
0.0
  0
LINE
  5
270
330
37
100
AcDbEntity
  8
0
  6
Continuous
 62
     7
100
AcDbLine
 10
244.3665162658616
 20
115.9619864868645
 30
0.0
 11
244.3665162658616
 21
134.0602994069645
 31
0.0
  0
LINE
  5
271
330
37
100
AcDbEntity
  8
0
  6
Continuous
 62
     7
100
AcDbLine
 10
245.7827319541616
 20
116.9120898374645
 30
0.0
 11
245.7827319541616
 21
132.7205859125645
 31
0.0
  0
LINE
  5
272
330
37
100
AcDbEntity
  8
0
  6
Continuous
 62
     7
100
AcDbLine
 10
245.8071690450615
 20
117.7150968483645
 30
0.0
 11
245.8071690450615
 21
132.7055792588645
 31
0.0
  0
LINE
  5
273
330
37
100
AcDbEntity
  8
0
  6
Continuous
 62
     7
100
AcDbLine
 10
245.9071690450616
 20
132.5663064107645
 30
0.0
 11
245.9071690450616
 21
116.8219321109645
 31
0.0
  0
LINE
  5
274
330
37
100
AcDbEntity
  8
0
  6
Continuous
 62
     7
100
AcDbLine
 10
246.7071690450616
 20
120.6965042799645
 30
0.0
 11
246.7071690450616
 21
131.1570928860645
 31
0.0
  0
LINE
  5
275
330
37
100
AcDbEntity
  8
0
  6
Continuous
 62
     7
100
AcDbLine
 10
248.6071690450616
 20
115.8134102123645
 30
0.0
 11
248.6071690450616
 21
116.8219321109645
 31
0.0
  0
LINE
  5
276
330
37
100
AcDbEntity
  8
0
  6
Continuous
 62
     3
100
AcDbLine
 10
249.4071690450616
 20
116.8219321109645
 30
0.0
 11
249.4071690450616
 21
116.1721315006645
 31
0.0
  0
LINE
  5
277
330
37
100
AcDbEntity
  8
0
  6
Continuous
 62
     7
100
AcDbLine
 10
249.7571690450616
 20
177.3949342114645
 30
0.0
 11
249.7571690450616
 21
179.8949342114645
 31
0.0
  0
LINE
  5
278
330
37
100
AcDbEntity
  8
0
  6
Continuous
 62
     7
100
AcDbLine
 10
245.8071690450615
 20
117.7150968483645
 30
0.0
 11
245.7827319541616
 21
116.9120898374645
 31
0.0
  0
LINE
  5
279
330
37
100
AcDbEntity
  8
0
  6
Continuous
 62
     7
100
AcDbLine
 10
266.4890195361615
 20
115.9619864868645
 30
0.0
 11
265.8248780155616
 21
134.0602994069645
 31
0.0
  0
LINE
  5
27A
330
37
100
AcDbEntity
  8
0
  6
Continuous
 62
     7
100
AcDbLine
 10
264.4071690450616
 20
117.7150968483645
 30
0.0
 11
264.4316061359616
 21
116.9120898374645
 31
0.0
  0
LINE
  5
27B
330
37
100
AcDbEntity
  8
0
  6
Continuous
 62
     3
100
AcDbLine
 10
258.5071690450616
 20
116.1721315006645
 30
0.0
 11
258.5071690450616
 21
116.8219321109645
 31
0.0
  0
LINE
  5
27C
330
37
100
AcDbEntity
  8
0
  6
Continuous
 62
     7
100
AcDbLine
 10
261.6071690450616
 20
115.8134102123645
 30
0.0
 11
261.6071690450616
 21
116.8219321109645
 31
0.0
  0
LINE
  5
27D
330
37
100
AcDbEntity
  8
0
  6
Continuous
 62
     7
100
AcDbLine
 10
261.7571690450616
 20
179.8949342114645
 30
0.0
 11
261.7571690450616
 21
177.3949342114645
 31
0.0
  0
LINE
  5
27E
330
37
100
AcDbEntity
  8
0
  6
Continuous
 62
     7
100
AcDbLine
 10
263.5071690450616
 20
120.6965042799645
 30
0.0
 11
263.5071690450616
 21
131.1570928860645
 31
0.0
  0
LINE
  5
27F
330
37
100
AcDbEntity
  8
0
  6
Continuous
 62
     7
100
AcDbLine
 10
264.3071690450615
 20
116.8219321109645
 30
0.0
 11
264.3071690450615
 21
132.5663064107645
 31
0.0
  0
LINE
  5
280
330
37
100
AcDbEntity
  8
0
  6
Continuous
 62
     7
100
AcDbLine
 10
264.4071690450616
 20
132.7055792588645
 30
0.0
 11
264.4071690450616
 21
117.7150968483645
 31
0.0
  0
LINE
  5
281
330
37
100
AcDbEntity
  8
0
  6
Continuous
 62
     7
100
AcDbLine
 10
264.4316061359616
 20
132.7205859125645
 30
0.0
 11
264.4316061359616
 21
116.9120898374645
 31
0.0
  0
LINE
  5
282
330
37
100
AcDbEntity
  8
0
  6
Continuous
 62
     7
100
AcDbLine
 10
266.4879068107616
 20
132.3276805949645
 30
0.0
 11
266.4879068107616
 21
131.3371413740645
 31
0.0
  0
LINE
  5
283
330
37
100
AcDbEntity
  8
0
  6
Continuous
 62
     7
100
AcDbLine
 10
266.4879068107616
 20
119.1276805949645
 30
0.0
 11
266.4879068107616
 21
118.1371413740645
 31
0.0
  0
LINE
  5
284
330
37
100
AcDbEntity
  8
0
  6
Continuous
 62
     7
100
AcDbLine
 10
266.8023534864616
 20
115.7532033099645
 30
0.0
 11
266.8023534864616
 21
118.0324109844645
 31
0.0
  0
LINE
  5
285
330
37
100
AcDbEntity
  8
0
  6
Continuous
 62
     7
100
AcDbLine
 10
266.8023534864616
 20
119.2324109844645
 30
0.0
 11
266.8023534864616
 21
131.2324109844645
 31
0.0
  0
LINE
  5
286
330
37
100
AcDbEntity
  8
0
  6
Continuous
 62
     7
100
AcDbLine
 10
266.8023534864616
 20
132.4324109844645
 30
0.0
 11
266.8023534864616
 21
134.7116186589645
 31
0.0
  0
LINE
  5
287
330
37
100
AcDbEntity
  8
0
  6
Continuous
 62
     7
100
AcDbLine
 10
266.8759579550615
 20
118.1371413740645
 30
0.0
 11
266.8759579550615
 21
119.1276805949645
 31
0.0
  0
LINE
  5
288
330
37
100
AcDbEntity
  8
0
  6
Continuous
 62
     7
100
AcDbLine
 10
266.8759579550615
 20
131.3371413740645
 30
0.0
 11
266.8759579550615
 21
132.3276805949645
 31
0.0
  0
LINE
  5
289
330
37
100
AcDbEntity
  8
0
  6
Continuous
 62
     7
100
AcDbLine
 10
267.7326183957616
 20
124.3626797761645
 30
0.0
 11
267.7326183957616
 21
124.3078603352645
 31
0.0
  0
LINE
  5
28A
330
37
100
AcDbEntity
  8
0
  6
Continuous
 62
     7
100
AcDbLine
 10
269.7033848347615
 20
125.7232288913645
 30
0.0
 11
269.7033848347615
 21
124.7415930561645
 31
0.0
  0
LINE
  5
28B
330
37
100
AcDbEntity
  8
0
  6
Continuous
 62
     7
100
AcDbLine
 10
269.8023534864616
 20
118.0324109844645
 30
0.0
 11
269.8023534864616
 21
119.2324109844645
 31
0.0
  0
LINE
  5
28C
330
37
100
AcDbEntity
  8
0
  6
Continuous
 62
     7
100
AcDbLine
 10
269.8023534864616
 20
131.2324109844645
 30
0.0
 11
269.8023534864616
 21
132.4324109844645
 31
0.0
  0
LINE
  5
28D
330
37
100
AcDbEntity
  8
0
  6
Continuous
 62
     7
100
AcDbLine
 10
269.9071690450615
 20
125.6324109844645
 30
0.0
 11
269.9071690450615
 21
124.8324109844645
 31
0.0
  0
LINE
  5
28E
330
37
100
AcDbEntity
  8
0
  6
Continuous
 62
     7
100
AcDbLine
 10
270.3033848347616
 20
124.0811315506645
 30
0.0
 11
270.3033848347616
 21
124.6286267741645
 31
0.0
  0
LINE
  5
28F
330
37
100
AcDbEntity
  8
0
  6
Continuous
 62
     7
100
AcDbLine
 10
270.3033848347616
 20
125.8361951948645
 30
0.0
 11
270.3033848347616
 21
126.3836904346645
 31
0.0
  0
LINE
  5
290
330
37
100
AcDbEntity
  8
0
  6
Continuous
 62
     7
100
AcDbLine
 10
270.5071690450616
 20
126.2324109844645
 30
0.0
 11
270.5071690450616
 21
125.6324109844645
 31
0.0
  0
LINE
  5
291
330
37
100
AcDbEntity
  8
0
  6
Continuous
 62
     7
100
AcDbLine
 10
270.5071690450616
 20
124.8324109844645
 30
0.0
 11
270.5071690450616
 21
124.2324109844645
 31
0.0
  0
LINE
  5
292
330
37
100
AcDbEntity
  8
0
  6
Continuous
 62
     7
100
AcDbLine
 10
271.3071690450615
 20
124.2324109844645
 30
0.0
 11
271.3071690450615
 21
124.8324109844645
 31
0.0
  0
LINE
  5
293
330
37
100
AcDbEntity
  8
0
  6
Continuous
 62
     7
100
AcDbLine
 10
271.3071690450615
 20
125.6324109844645
 30
0.0
 11
271.3071690450615
 21
126.2324109844645
 31
0.0
  0
LINE
  5
294
330
37
100
AcDbEntity
  8
0
  6
Continuous
 62
     7
100
AcDbLine
 10
271.5109532553615
 20
124.0811315343645
 30
0.0
 11
271.5109532553615
 21
124.6286267741645
 31
0.0
  0
LINE
  5
295
330
37
100
AcDbEntity
  8
0
  6
Continuous
 62
     7
100
AcDbLine
 10
271.5109532553615
 20
125.8361951948645
 30
0.0
 11
271.5109532553615
 21
126.3836904183645
 31
0.0
  0
LINE
  5
296
330
37
100
AcDbEntity
  8
0
  6
Continuous
 62
     7
100
AcDbLine
 10
244.3071690450615
 20
119.6811303840645
 30
0.0
 11
244.2174119781616
 21
119.3221021163645
 31
0.0
  0
LINE
  5
297
330
37
100
AcDbEntity
  8
0
  6
Continuous
 62
     7
100
AcDbLine
 10
271.9071690450615
 20
124.8324109844645
 30
0.0
 11
271.9071690450615
 21
125.6324109844645
 31
0.0
  0
LINE
  5
298
330
37
100
AcDbEntity
  8
0
  6
Continuous
 62
     7
100
AcDbLine
 10
272.1109532553616
 20
124.7415930775645
 30
0.0
 11
272.1109532553616
 21
125.7232289127645
 31
0.0
  0
LINE
  5
299
330
37
100
AcDbEntity
  8
0
  6
Continuous
 62
     7
100
AcDbLine
 10
274.0817196943616
 20
126.1021421928645
 30
0.0
 11
274.0817196943616
 21
126.1569616337645
 31
0.0
  0
LINE
  5
29A
330
37
100
AcDbEntity
  8
0
  6
Continuous
 62
     7
100
AcDbLine
 10
276.9071690450616
 20
115.7532033099645
 30
0.0
 11
276.9071690450616
 21
115.6833617710645
 31
0.0
  0
LINE
  5
29B
330
37
100
AcDbEntity
  8
0
  6
Continuous
 62
     7
100
AcDbLine
 10
276.9071690450616
 20
134.7116186589645
 30
0.0
 11
276.9071690450616
 21
134.7814601979645
 31
0.0
  0
LINE
  5
29C
330
37
100
AcDbEntity
  8
0
  6
Continuous
 62
     7
100
AcDbLine
 10
278.6533848347616
 20
150.8857521183645
 30
0.0
 11
278.6533848347616
 21
149.9041162831645
 31
0.0
  0
LINE
  5
29D
330
37
100
AcDbEntity
  8
0
  6
Continuous
 62
     7
100
AcDbLine
 10
278.8373275060616
 20
117.6833617710645
 30
0.0
 11
278.8373275060616
 21
132.7814601979645
 31
0.0
  0
LINE
  5
29E
330
37
100
AcDbEntity
  8
0
  6
Continuous
 62
     7
100
AcDbLine
 10
278.8571690450616
 20
150.7949342114645
 30
0.0
 11
278.8571690450616
 21
149.9949342114645
 31
0.0
  0
LINE
  5
29F
330
37
100
AcDbEntity
  8
0
  6
Continuous
 62
     7
100
AcDbLine
 10
278.9071690450616
 20
117.6833617710645
 30
0.0
 11
278.9071690450616
 21
132.7814601979645
 31
0.0
  0
LINE
  5
2A0
330
37
100
AcDbEntity
  8
0
  6
Continuous
 62
     7
100
AcDbLine
 10
279.2533848347616
 20
149.2436547775645
 30
0.0
 11
279.2533848347616
 21
149.7911500010645
 31
0.0
  0
LINE
  5
2A1
330
37
100
AcDbEntity
  8
0
  6
Continuous
 62
     7
100
AcDbLine
 10
279.2533848347616
 20
150.9987184217645
 30
0.0
 11
279.2533848347616
 21
151.5462136615645
 31
0.0
  0
LINE
  5
2A2
330
37
100
AcDbEntity
  8
0
  6
Continuous
 62
     7
100
AcDbLine
 10
279.4571690450616
 20
151.3949342114645
 30
0.0
 11
279.4571690450616
 21
150.7949342114645
 31
0.0
  0
LINE
  5
2A3
330
37
100
AcDbEntity
  8
0
  6
Continuous
 62
     7
100
AcDbLine
 10
279.4571690450616
 20
149.9949342114645
 30
0.0
 11
279.4571690450616
 21
149.3949342114645
 31
0.0
  0
LINE
  5
2A4
330
37
100
AcDbEntity
  8
0
  6
Continuous
 62
     7
100
AcDbLine
 10
280.2571690450616
 20
149.3949342114645
 30
0.0
 11
280.2571690450616
 21
149.9949342114645
 31
0.0
  0
LINE
  5
2A5
330
37
100
AcDbEntity
  8
0
  6
Continuous
 62
     7
100
AcDbLine
 10
280.2571690450616
 20
150.7949342114645
 30
0.0
 11
280.2571690450616
 21
151.3949342114645
 31
0.0
  0
LINE
  5
2A6
330
37
100
AcDbEntity
  8
0
  6
Continuous
 62
     7
100
AcDbLine
 10
280.4609532553616
 20
149.2436547612645
 30
0.0
 11
280.4609532553616
 21
149.7911500010645
 31
0.0
  0
LINE
  5
2A7
330
37
100
AcDbEntity
  8
0
  6
Continuous
 62
     7
100
AcDbLine
 10
280.4609532553616
 20
150.9987184217645
 30
0.0
 11
280.4609532553616
 21
151.5462136452645
 31
0.0
  0
LINE
  5
2A8
330
37
100
AcDbEntity
  8
0
  6
Continuous
 62
     7
100
AcDbLine
 10
280.7071690450616
 20
126.4949342114645
 30
0.0
 11
280.7071690450616
 21
114.6949342114645
 31
0.0
  0
LINE
  5
2A9
330
37
100
AcDbEntity
  8
0
  6
Continuous
 62
     7
100
AcDbLine
 10
280.8571690450616
 20
149.9949342114645
 30
0.0
 11
280.8571690450616
 21
150.7949342114645
 31
0.0
  0
LINE
  5
2AA
330
37
100
AcDbEntity
  8
0
  6
Continuous
 62
     7
100
AcDbLine
 10
281.0609532553616
 20
149.9041163044645
 30
0.0
 11
281.0609532553616
 21
150.8857521397645
 31
0.0
  0
LINE
  5
2AB
330
37
100
AcDbEntity
  8
0
  6
Continuous
 62
     7
100
AcDbLine
 10
244.3071690450615
 20
115.8134102123645
 30
0.0
 11
244.3665162658616
 21
115.9619864868645
 31
0.0
  0
LINE
  5
2AC
330
37
100
AcDbEntity
  8
0
  6
Continuous
 62
     7
100
AcDbLine
 10
230.9608038645615
 20
151.5985690308645
 30
0.0
 11
230.7571690450616
 21
151.3949342114645
 31
0.0
  0
LINE
  5
2AD
330
37
100
AcDbEntity
  8
0
  6
Continuous
 62
     7
100
AcDbLine
 10
229.1535342248616
 20
149.7912993912645
 30
0.0
 11
229.3571690450616
 21
149.9949342114645
 31
0.0
  0
LINE
  5
2AE
330
37
100
AcDbEntity
  8
0
  6
Continuous
 62
     7
100
AcDbLine
 10
229.9571690450616
 20
149.9949342114645
 30
0.0
 11
229.7533848347616
 21
149.7911500010645
 31
0.0
  0
LINE
  5
2AF
330
37
100
AcDbEntity
  8
0
  6
Continuous
 62
     7
100
AcDbLine
 10
230.7571690450616
 20
150.7949342114645
 30
0.0
 11
230.9609532553616
 21
150.9987184217645
 31
0.0
  0
LINE
  5
2B0
330
37
100
AcDbEntity
  8
0
  6
Continuous
 62
     7
100
AcDbLine
 10
231.5608038652615
 20
150.9985690315645
 30
0.0
 11
231.3571690450616
 21
150.7949342114645
 31
0.0
  0
LINE
  5
2B1
330
37
100
AcDbEntity
  8
0
  6
Continuous
 62
     7
100
AcDbLine
 10
229.7535342255616
 20
149.1912993919645
 30
0.0
 11
229.9571690450616
 21
149.3949342114645
 31
0.0
  0
LINE
  5
2B2
330
37
100
AcDbEntity
  8
0
  6
Continuous
 62
     7
100
AcDbLine
 10
292.5071690450616
 20
114.6949342114645
 30
0.0
 11
292.5071690450616
 21
126.4949342114645
 31
0.0
  0
LINE
  5
2B3
330
37
100
AcDbEntity
  8
0
  6
Continuous
 62
     7
100
AcDbLine
 10
242.4853611705615
 20
115.0333119115645
 30
0.0
 11
242.0297562729615
 21
114.1221021163645
 31
0.0
  0
LINE
  5
2B4
330
37
100
AcDbEntity
  8
0
  6
Continuous
 62
     7
100
AcDbLine
 10
216.0571690450615
 20
115.4949342114645
 30
0.0
 11
217.4571690450616
 21
116.8949342114645
 31
0.0
  0
LINE
  5
2B5
330
37
100
AcDbEntity
  8
0
  6
Continuous
 62
     7
100
AcDbLine
 10
231.1571690450616
 20
125.9949342114645
 30
0.0
 11
229.7571690450616
 21
124.5949342114645
 31
0.0
  0
LINE
  5
2B6
330
37
100
AcDbEntity
  8
0
  6
Continuous
 62
     7
100
AcDbLine
 10
280.4608038645615
 20
151.5985690308645
 30
0.0
 11
280.2571690450616
 21
151.3949342114645
 31
0.0
  0
LINE
  5
2B7
330
37
100
AcDbEntity
  8
0
  6
Continuous
 62
     7
100
AcDbLine
 10
278.6535342248616
 20
149.7912993912645
 30
0.0
 11
278.8571690450616
 21
149.9949342114645
 31
0.0
  0
LINE
  5
2B8
330
37
100
AcDbEntity
  8
0
  6
Continuous
 62
     7
100
AcDbLine
 10
279.4571690450616
 20
149.9949342114645
 30
0.0
 11
279.2533848347616
 21
149.7911500010645
 31
0.0
  0
LINE
  5
2B9
330
37
100
AcDbEntity
  8
0
  6
Continuous
 62
     7
100
AcDbLine
 10
280.2571690450616
 20
150.7949342114645
 30
0.0
 11
280.4609532553616
 21
150.9987184217645
 31
0.0
  0
LINE
  5
2BA
330
37
100
AcDbEntity
  8
0
  6
Continuous
 62
     7
100
AcDbLine
 10
281.0608038652615
 20
150.9985690315645
 30
0.0
 11
280.8571690450616
 21
150.7949342114645
 31
0.0
  0
LINE
  5
2BB
330
37
100
AcDbEntity
  8
0
  6
Continuous
 62
     7
100
AcDbLine
 10
279.2535342255616
 20
149.1912993919645
 30
0.0
 11
279.4571690450616
 21
149.3949342114645
 31
0.0
  0
LINE
  5
2BC
330
37
100
AcDbEntity
  8
0
  6
Continuous
 62
     7
100
AcDbLine
 10
267.7432094599616
 20
124.3184513994645
 30
0.0
 11
267.7326183957616
 21
124.3078603352645
 31
0.0
  0
LINE
  5
2BD
330
37
100
AcDbEntity
  8
0
  6
Continuous
 62
     7
100
AcDbLine
 10
271.5108038645616
 20
126.4360458039645
 30
0.0
 11
271.3071690450615
 21
126.2324109844645
 31
0.0
  0
LINE
  5
2BE
330
37
100
AcDbEntity
  8
0
  6
Continuous
 62
     7
100
AcDbLine
 10
269.7035342248617
 20
124.6287761643645
 30
0.0
 11
269.9071690450615
 21
124.8324109844645
 31
0.0
  0
LINE
  5
2BF
330
37
100
AcDbEntity
  8
0
  6
Continuous
 62
     7
100
AcDbLine
 10
270.5071690450616
 20
124.8324109844645
 30
0.0
 11
270.3033848347616
 21
124.6286267741645
 31
0.0
  0
LINE
  5
2C0
330
37
100
AcDbEntity
  8
0
  6
Continuous
 62
     7
100
AcDbLine
 10
271.3071690450615
 20
125.6324109844645
 30
0.0
 11
271.5109532553615
 21
125.8361951948645
 31
0.0
  0
LINE
  5
2C1
330
37
100
AcDbEntity
  8
0
  6
Continuous
 62
     7
100
AcDbLine
 10
272.1108038652616
 20
125.8360458046645
 30
0.0
 11
271.9071690450615
 21
125.6324109844645
 31
0.0
  0
LINE
  5
2C2
330
37
100
AcDbEntity
  8
0
  6
Continuous
 62
     7
100
AcDbLine
 10
270.3035342255617
 20
124.0287761650645
 30
0.0
 11
270.5071690450616
 21
124.2324109844645
 31
0.0
  0
LINE
  5
2C3
330
37
100
AcDbEntity
  8
0
  6
Continuous
 62
     7
100
AcDbLine
 10
264.0372115705616
 20
134.2017831948645
 30
0.0
 11
264.9071690450615
 21
134.7814601979645
 31
0.0
  0
LINE
  5
2C4
330
37
100
AcDbEntity
  8
0
  6
Continuous
 62
     7
100
AcDbLine
 10
265.8248780155616
 20
134.0602994069645
 30
0.0
 11
266.8023534864616
 21
134.7116186589645
 31
0.0
  0
LINE
  5
2C5
330
37
100
AcDbEntity
  8
0
  6
Continuous
 62
     7
100
AcDbLine
 10
264.4071690450616
 20
132.7055792588645
 30
0.0
 11
264.4316061359616
 21
132.7205859125645
 31
0.0
  0
LINE
  5
2C6
330
37
100
AcDbEntity
  8
0
  6
Continuous
 62
     7
100
AcDbLine
 10
274.0711286301615
 20
126.1463705695645
 30
0.0
 11
274.0817196943616
 21
126.1569616337645
 31
0.0
  0
LINE
  5
2C7
330
37
100
AcDbEntity
  8
0
  6
Continuous
 62
     7
100
AcDbLine
 10
266.8023534864616
 20
132.4324109844645
 30
0.0
 11
266.4879068107616
 21
132.3276805949645
 31
0.0
  0
LINE
  5
2C8
330
37
100
AcDbEntity
  8
0
  6
Continuous
 62
     7
100
AcDbLine
 10
266.8023534864616
 20
119.2324109844645
 30
0.0
 11
266.4879068107616
 21
119.1276805949645
 31
0.0
  0
ARC
  5
2C9
330
37
100
AcDbEntity
  8
0
  6
Continuous
 62
     7
100
AcDbCircle
 10
229.8630990844615
 20
111.4561269998645
 30
0.0
 40
40.142591554
100
AcDbArc
 50
89.9953524507976
 51
90.15638282289804
  0
ARC
  5
2CA
330
37
100
AcDbEntity
  8
0
  6
Continuous
 62
     7
100
AcDbCircle
 10
230.8512391166615
 20
111.4561872337645
 30
0.0
 40
40.1425313201
100
AcDbArc
 50
89.8436171007016
 51
90.00464774090282
  0
ARC
  5
2CB
330
37
100
AcDbEntity
  8
0
  6
Continuous
 62
     7
100
AcDbCircle
 10
231.9718758506616
 20
125.7264859910645
 30
0.0
 40
40.1390775369
100
AcDbArc
 50
359.9953507441997
 51
0.1563893119002539
  0
ARC
  5
2CC
330
37
100
AcDbEntity
  8
0
  6
Continuous
 62
     7
100
AcDbCircle
 10
231.9719726347615
 20
124.7383358740645
 30
0.0
 40
40.1389807527
100
AcDbArc
 50
359.8436104594002
 51
0.0046494458006401
  0
ARC
  5
2CD
330
37
100
AcDbEntity
  8
0
  6
Continuous
 62
     7
100
AcDbCircle
 10
218.7571690450616
 20
117.9449342114645
 30
0.0
 40
0.2
100
AcDbArc
 50
180.0
 51
270.0
  0
ARC
  5
2CE
330
37
100
AcDbEntity
  8
0
  6
Continuous
 62
     7
100
AcDbCircle
 10
218.7571690450616
 20
123.5449342114645
 30
0.0
 40
0.2
100
AcDbArc
 50
90.0
 51
180.0
  0
ARC
  5
2CF
330
37
100
AcDbEntity
  8
0
  6
Continuous
 62
     7
100
AcDbCircle
 10
228.3570691202616
 20
117.9449297657645
 30
0.0
 40
0.1999976133
100
AcDbArc
 50
270.0076932721
 51
0.0012735993995224
  0
ARC
  5
2D0
330
37
100
AcDbEntity
  8
0
  6
Continuous
 62
     7
100
AcDbCircle
 10
228.3570691247616
 20
123.5449386907645
 30
0.0
 40
0.1999975918
100
AcDbArc
 50
359.9987167463996
 51
89.99230803169737
  0
ARC
  5
2D1
330
37
100
AcDbEntity
  8
0
  6
Continuous
 62
     7
100
AcDbCircle
 10
228.3917679887616
 20
123.5449387020645
 30
0.0
 40
0.1999975379
100
AcDbArc
 50
359.9987135074
 51
89.99235611069911
  0
ARC
  5
2D2
330
37
100
AcDbEntity
  8
0
  6
Continuous
 62
     7
100
AcDbCircle
 10
228.3917680480615
 20
117.9449297534645
 30
0.0
 40
0.1999975163
100
AcDbArc
 50
270.0076269141986
 51
0.0012771215007918
  0
ARC
  5
2D3
330
37
100
AcDbEntity
  8
0
  6
Continuous
 62
     7
100
AcDbCircle
 10
230.8512390056616
 20
189.3337414229645
 30
0.0
 40
40.14259155389999
100
AcDbArc
 50
269.9953524507976
 51
270.156382822898
  0
ARC
  5
2D4
330
37
100
AcDbEntity
  8
0
  6
Continuous
 62
     7
100
AcDbCircle
 10
229.8630989734615
 20
189.3336811891645
 30
0.0
 40
40.1425313202
100
AcDbArc
 50
269.8436171007016
 51
270.0046477409028
  0
ARC
  5
2D5
330
37
100
AcDbEntity
  8
0
  6
Continuous
 62
     7
100
AcDbCircle
 10
191.4218758204615
 20
150.8890092179645
 30
0.0
 40
40.1390775671
100
AcDbArc
 50
359.9953507443006
 51
0.1563893117992907
  0
ARC
  5
2D6
330
37
100
AcDbEntity
  8
0
  6
Continuous
 62
     7
100
AcDbCircle
 10
240.9218758506615
 20
150.8890092179645
 30
0.0
 40
40.1390775369
100
AcDbArc
 50
359.9953507441997
 51
0.1563893119002539
  0
ARC
  5
2D7
330
37
100
AcDbEntity
  8
0
  6
Continuous
 62
     7
100
AcDbCircle
 10
240.9219726347616
 20
149.9008591009645
 30
0.0
 40
40.1389807527
100
AcDbArc
 50
359.8436104594002
 51
0.0046494458006401
  0
ARC
  5
2D8
330
37
100
AcDbEntity
  8
0
  6
Continuous
 62
     7
100
AcDbCircle
 10
191.4219726408615
 20
149.9008591009645
 30
0.0
 40
40.1389807467
100
AcDbArc
 50
359.8436104594002
 51
0.0046494458006401
  0
ARC
  5
2D9
330
37
100
AcDbEntity
  8
0
  6
Continuous
 62
     7
100
AcDbCircle
 10
229.2062945928616
 20
141.6824626382645
 30
0.0
 40
9.316255792299999
100
AcDbArc
 50
90.00248745939671
 51
90.32448256359975
  0
ARC
  5
2DA
330
37
100
AcDbEntity
  8
0
  6
Continuous
 62
     7
100
AcDbCircle
 10
231.5080434972616
 20
159.1074057846645
 30
0.0
 40
9.316255792299999
100
AcDbArc
 50
270.0024874593967
 51
270.3244825635997
  0
ARC
  5
2DB
330
37
100
AcDbEntity
  8
0
  6
Continuous
 62
     7
100
AcDbCircle
 10
231.5080435361616
 20
141.6824721790645
 30
0.0
 40
9.316246251499999
100
AcDbArc
 50
89.67551734250266
 51
89.99751256999996
  0
ARC
  5
2DC
330
37
100
AcDbEntity
  8
0
  6
Continuous
 62
     7
100
AcDbCircle
 10
229.2062945539616
 20
159.1073962438645
 30
0.0
 40
9.316246251499999
100
AcDbArc
 50
269.6755173425026
 51
269.9975125699999
  0
ARC
  5
2DD
330
37
100
AcDbEntity
  8
0
  6
Continuous
 62
     7
100
AcDbCircle
 10
221.6449369525616
 20
151.5458092335645
 30
0.0
 40
9.3160163116
100
AcDbArc
 50
0.0024872308999795
 51
0.3244873960001416
  0
ARC
  5
2DE
330
37
100
AcDbEntity
  8
0
  6
Continuous
 62
     7
100
AcDbCircle
 10
239.0694011375615
 20
149.2440591892645
 30
0.0
 40
9.3160163116
100
AcDbArc
 50
180.0024872309
 51
180.3244873960001
  0
ARC
  5
2DF
330
37
100
AcDbEntity
  8
0
  6
Continuous
 62
     7
100
AcDbCircle
 10
239.0693908157616
 20
151.5458092469645
 30
0.0
 40
9.3160059898
100
AcDbArc
 50
179.6755123273993
 51
179.9975127483992
  0
ARC
  5
2E0
330
37
100
AcDbEntity
  8
0
  6
Continuous
 62
     7
100
AcDbCircle
 10
221.6449472743616
 20
149.2440591758645
 30
0.0
 40
9.3160059898
100
AcDbArc
 50
359.6755123273993
 51
359.9975127483992
  0
CIRCLE
  5
2E1
330
37
100
AcDbEntity
  8
0
  6
Continuous
 62
     7
100
AcDbCircle
 10
230.3571690450616
 20
150.3949342114645
 30
0.0
 40
3.299999999999999
  0
ARC
  5
2E2
330
37
100
AcDbEntity
  8
0
  6
Continuous
 62
     7
100
AcDbCircle
 10
230.3575520428616
 20
150.3950106523645
 30
0.0
 40
1.300383
100
AcDbArc
 50
157.8211234804011
 51
202.1789024744014
  0
ARC
  5
2E3
330
37
100
AcDbEntity
  8
0
  6
Continuous
 62
     7
100
AcDbCircle
 10
230.3567860472616
 20
150.3948577705645
 30
0.0
 40
1.300383
100
AcDbArc
 50
337.8211234804011
 51
22.1789024744014
  0
ARC
  5
2E4
330
37
100
AcDbEntity
  8
0
  6
Continuous
 62
     7
100
AcDbCircle
 10
230.3571647528615
 20
150.3949288915645
 30
0.0
 40
1.299993182699999
100
AcDbArc
 50
207.6744863230004
 51
242.3254625305015
  0
ARC
  5
2E5
330
37
100
AcDbEntity
  8
0
  6
Continuous
 62
     7
100
AcDbCircle
 10
230.3571733372615
 20
150.3949395313645
 30
0.0
 40
1.299993182699999
100
AcDbArc
 50
27.67448632300046
 51
62.3254625305015
  0
ARC
  5
2E6
330
37
100
AcDbEntity
  8
0
  6
Continuous
 62
     7
100
AcDbCircle
 10
230.3571732877616
 20
150.3949288359645
 30
0.0
 40
1.2999931709
100
AcDbArc
 50
297.6745402032027
 51
332.3255161707014
  0
ARC
  5
2E7
330
37
100
AcDbEntity
  8
0
  6
Continuous
 62
     7
100
AcDbCircle
 10
230.3571648023616
 20
150.3949395869645
 30
0.0
 40
1.2999931709
100
AcDbArc
 50
117.6745402032027
 51
152.3255161707014
  0
ARC
  5
2E8
330
37
100
AcDbEntity
  8
0
  6
Continuous
 62
     7
100
AcDbCircle
 10
230.3571690542616
 20
150.3949061269645
 30
0.0
 40
1.2999719153
100
AcDbArc
 50
247.8175468507977
 51
292.1824531492023
  0
ARC
  5
2E9
330
37
100
AcDbEntity
  8
0
  6
Continuous
 62
     7
100
AcDbCircle
 10
230.3571690357616
 20
150.3949622959645
 30
0.0
 40
1.2999719153
100
AcDbArc
 50
67.81754685079772
 51
112.1824531492022
  0
ARC
  5
2EA
330
37
100
AcDbEntity
  8
0
  6
Continuous
 62
     7
100
AcDbCircle
 10
279.3630990844615
 20
111.4561269998645
 30
0.0
 40
40.142591554
100
AcDbArc
 50
89.9953524507976
 51
90.15638282289804
  0
ARC
  5
2EB
330
37
100
AcDbEntity
  8
0
  6
Continuous
 62
     7
100
AcDbCircle
 10
270.4130990844616
 20
86.29360377286451
 30
0.0
 40
40.142591554
100
AcDbArc
 50
89.9953524507976
 51
90.15638282289804
  0
ARC
  5
2EC
330
37
100
AcDbEntity
  8
0
  6
Continuous
 62
     7
100
AcDbCircle
 10
280.3512391166616
 20
111.4561872336645
 30
0.0
 40
40.1425313201
100
AcDbArc
 50
89.8436171007016
 51
90.00464774090282
  0
ARC
  5
2ED
330
37
100
AcDbEntity
  8
0
  6
Continuous
 62
     7
100
AcDbCircle
 10
271.4012391166616
 20
86.29366400676451
 30
0.0
 40
40.1425313201
100
AcDbArc
 50
89.8436171007016
 51
90.00464774090282
  0
ARC
  5
2EE
330
37
100
AcDbEntity
  8
0
  6
Continuous
 62
     7
100
AcDbCircle
 10
309.8424622395616
 20
124.7383359779645
 30
0.0
 40
40.13907753699999
100
AcDbArc
 50
179.9953507441997
 51
180.1563893119002
  0
ARC
  5
2EF
330
37
100
AcDbEntity
  8
0
  6
Continuous
 62
     7
100
AcDbCircle
 10
309.8423654553616
 20
125.7264860949645
 30
0.0
 40
40.1389807527
100
AcDbArc
 50
179.8436104594002
 51
180.0046494458006
  0
ARC
  5
2F0
330
37
100
AcDbEntity
  8
0
  6
Continuous
 62
     7
100
AcDbCircle
 10
269.7562945928615
 20
116.5199394112645
 30
0.0
 40
9.316255792299999
100
AcDbArc
 50
90.00248745939671
 51
90.32448256359975
  0
ARC
  5
2F1
330
37
100
AcDbEntity
  8
0
  6
Continuous
 62
     7
100
AcDbCircle
 10
272.0580434972616
 20
133.9448825576645
 30
0.0
 40
9.316255792299999
100
AcDbArc
 50
270.0024874593967
 51
270.3244825635997
  0
ARC
  5
2F2
330
37
100
AcDbEntity
  8
0
  6
Continuous
 62
     7
100
AcDbCircle
 10
272.0580435361616
 20
116.5199489521645
 30
0.0
 40
9.316246251499999
100
AcDbArc
 50
89.67551734250266
 51
89.99751256999996
  0
ARC
  5
2F3
330
37
100
AcDbEntity
  8
0
  6
Continuous
 62
     7
100
AcDbCircle
 10
269.7562945539615
 20
133.9448730168645
 30
0.0
 40
9.316246251499999
100
AcDbArc
 50
269.6755173425026
 51
269.9975125699999
  0
ARC
  5
2F4
330
37
100
AcDbEntity
  8
0
  6
Continuous
 62
     7
100
AcDbCircle
 10
262.1949369510616
 20
126.3832860066645
 30
0.0
 40
9.316016313099998
100
AcDbArc
 50
0.0024872309993145
 51
0.3244873960001416
  0
ARC
  5
2F5
330
37
100
AcDbEntity
  8
0
  6
Continuous
 62
     7
100
AcDbCircle
 10
279.6194011390615
 20
124.0815359623645
 30
0.0
 40
9.316016313099998
100
AcDbArc
 50
180.0024872309993
 51
180.3244873960001
  0
ARC
  5
2F6
330
37
100
AcDbEntity
  8
0
  6
Continuous
 62
     7
100
AcDbCircle
 10
279.6193908187615
 20
126.3832860200645
 30
0.0
 40
9.316005992799999
100
AcDbArc
 50
179.6755123275003
 51
179.9975127483992
  0
ARC
  5
2F7
330
37
100
AcDbEntity
  8
0
  6
Continuous
 62
     7
100
AcDbCircle
 10
262.1949472713616
 20
124.0815359489645
 30
0.0
 40
9.316005992799999
100
AcDbArc
 50
359.6755123275003
 51
359.9975127483992
  0
CIRCLE
  5
2F8
330
37
100
AcDbEntity
  8
0
  6
Continuous
 62
     7
100
AcDbCircle
 10
286.6071690450616
 20
120.5949342114645
 30
0.0
 40
3.35
  0
CIRCLE
  5
2F9
330
37
100
AcDbEntity
  8
0
  6
Continuous
 62
     7
100
AcDbCircle
 10
270.9071690450616
 20
125.2324109844645
 30
0.0
 40
3.299999999999999
  0
CIRCLE
  5
2FA
330
37
100
AcDbEntity
  8
0
  6
Continuous
 62
     7
100
AcDbCircle
 10
286.6071690450616
 20
120.5949342114645
 30
0.0
 40
3.0221620355
  0
CIRCLE
  5
2FB
330
37
100
AcDbEntity
  8
0
  6
Continuous
 62
     7
100
AcDbCircle
 10
286.6071690450616
 20
120.5949342114645
 30
0.0
 40
2.822352391199999
  0
ARC
  5
2FC
330
37
100
AcDbEntity
  8
0
  6
Continuous
 62
     7
100
AcDbCircle
 10
276.9071690450616
 20
117.6833617710645
 30
0.0
 40
2.0
100
AcDbArc
 50
270.0
 51
0.0
  0
ARC
  5
2FD
330
37
100
AcDbEntity
  8
0
  6
Continuous
 62
     7
100
AcDbCircle
 10
276.9071690450616
 20
132.7814601979645
 30
0.0
 40
2.0
100
AcDbArc
 50
0.0
 51
90.0
  0
ARC
  5
2FE
330
37
100
AcDbEntity
  8
0
  6
Continuous
 62
     7
100
AcDbCircle
 10
276.9071690450616
 20
132.7814601979645
 30
0.0
 40
1.930158460999999
100
AcDbArc
 50
0.0
 51
90.0
  0
ARC
  5
2FF
330
37
100
AcDbEntity
  8
0
  6
Continuous
 62
     7
100
AcDbCircle
 10
276.9071690450616
 20
117.6833617710645
 30
0.0
 40
1.930158460999999
100
AcDbArc
 50
270.0
 51
0.0
  0
ARC
  5
300
330
37
100
AcDbEntity
  8
0
  6
Continuous
 62
     7
100
AcDbCircle
 10
270.9075520428616
 20
125.2324874253645
 30
0.0
 40
1.300383
100
AcDbArc
 50
157.8211234804011
 51
202.1789024744014
  0
ARC
  5
301
330
37
100
AcDbEntity
  8
0
  6
Continuous
 62
     7
100
AcDbCircle
 10
270.9067860472615
 20
125.2323345435645
 30
0.0
 40
1.300383
100
AcDbArc
 50
337.8211234804011
 51
22.1789024744014
  0
ARC
  5
302
330
37
100
AcDbEntity
  8
0
  6
Continuous
 62
     7
100
AcDbCircle
 10
270.9071647528616
 20
125.2324056645645
 30
0.0
 40
1.299993182699999
100
AcDbArc
 50
207.6744863230004
 51
242.3254625305015
  0
ARC
  5
303
330
37
100
AcDbEntity
  8
0
  6
Continuous
 62
     7
100
AcDbCircle
 10
270.9071733372616
 20
125.2324163043645
 30
0.0
 40
1.299993182699999
100
AcDbArc
 50
27.67448632300046
 51
62.3254625305015
  0
ARC
  5
304
330
37
100
AcDbEntity
  8
0
  6
Continuous
 62
     7
100
AcDbCircle
 10
270.9071732877616
 20
125.2324056089645
 30
0.0
 40
1.2999931709
100
AcDbArc
 50
297.6745402032027
 51
332.3255161707014
  0
ARC
  5
305
330
37
100
AcDbEntity
  8
0
  6
Continuous
 62
     7
100
AcDbCircle
 10
270.9071648023615
 20
125.2324163599645
 30
0.0
 40
1.2999931709
100
AcDbArc
 50
117.6745402032027
 51
152.3255161707014
  0
ARC
  5
306
330
37
100
AcDbEntity
  8
0
  6
Continuous
 62
     7
100
AcDbCircle
 10
270.9071690542615
 20
125.2323828999645
 30
0.0
 40
1.2999719153
100
AcDbArc
 50
247.8175468507977
 51
292.1824531492023
  0
ARC
  5
307
330
37
100
AcDbEntity
  8
0
  6
Continuous
 62
     7
100
AcDbCircle
 10
270.9071690357616
 20
125.2324390689645
 30
0.0
 40
1.2999719153
100
AcDbArc
 50
67.81754685079772
 51
112.1824531492022
  0
ARC
  5
308
330
37
100
AcDbEntity
  8
0
  6
Continuous
 62
     7
100
AcDbCircle
 10
280.3512390056616
 20
189.3337414229645
 30
0.0
 40
40.142591554
100
AcDbArc
 50
269.9953524507976
 51
270.156382822898
  0
ARC
  5
309
330
37
100
AcDbEntity
  8
0
  6
Continuous
 62
     7
100
AcDbCircle
 10
271.4012390056616
 20
164.1712181960645
 30
0.0
 40
40.14259155389999
100
AcDbArc
 50
269.9953524507976
 51
270.156382822898
  0
ARC
  5
30A
330
37
100
AcDbEntity
  8
0
  6
Continuous
 62
     7
100
AcDbCircle
 10
279.3630989734615
 20
189.3336811891645
 30
0.0
 40
40.1425313201
100
AcDbArc
 50
269.8436171007016
 51
270.0046477409028
  0
ARC
  5
30B
330
37
100
AcDbEntity
  8
0
  6
Continuous
 62
     7
100
AcDbCircle
 10
270.4130989734615
 20
164.1711579622645
 30
0.0
 40
40.1425313201
100
AcDbArc
 50
269.8436171007016
 51
270.0046477409028
  0
ARC
  5
30C
330
37
100
AcDbEntity
  8
0
  6
Continuous
 62
     7
100
AcDbCircle
 10
269.2924622697616
 20
149.9008592048645
 30
0.0
 40
40.1390775672
100
AcDbArc
 50
179.9953507443006
 51
180.1563893117992
  0
ARC
  5
30D
330
37
100
AcDbEntity
  8
0
  6
Continuous
 62
     7
100
AcDbCircle
 10
318.7924622395616
 20
149.9008592048645
 30
0.0
 40
40.13907753699999
100
AcDbArc
 50
179.9953507441997
 51
180.1563893119002
  0
ARC
  5
30E
330
37
100
AcDbEntity
  8
0
  6
Continuous
 62
     7
100
AcDbCircle
 10
318.7923654553615
 20
150.8890093218645
 30
0.0
 40
40.1389807527
100
AcDbArc
 50
179.8436104594002
 51
180.0046494458006
  0
ARC
  5
30F
330
37
100
AcDbEntity
  8
0
  6
Continuous
 62
     7
100
AcDbCircle
 10
269.2923654492615
 20
150.8890093218645
 30
0.0
 40
40.1389807467
100
AcDbArc
 50
179.8436104594002
 51
180.0046494458006
  0
ARC
  5
310
330
37
100
AcDbEntity
  8
0
  6
Continuous
 62
     7
100
AcDbCircle
 10
278.7062945928616
 20
141.6824626382645
 30
0.0
 40
9.316255792299999
100
AcDbArc
 50
90.00248745939671
 51
90.32448256359975
  0
ARC
  5
311
330
37
100
AcDbEntity
  8
0
  6
Continuous
 62
     7
100
AcDbCircle
 10
281.0080434972616
 20
159.1074057846645
 30
0.0
 40
9.316255792299999
100
AcDbArc
 50
270.0024874593967
 51
270.3244825635997
  0
ARC
  5
312
330
37
100
AcDbEntity
  8
0
  6
Continuous
 62
     7
100
AcDbCircle
 10
281.0080435361616
 20
141.6824721790645
 30
0.0
 40
9.316246251499999
100
AcDbArc
 50
89.67551734250266
 51
89.99751256999996
  0
ARC
  5
313
330
37
100
AcDbEntity
  8
0
  6
Continuous
 62
     7
100
AcDbCircle
 10
278.7062945539616
 20
159.1073962437645
 30
0.0
 40
9.316246251499999
100
AcDbArc
 50
269.6755173425026
 51
269.9975125699999
  0
ARC
  5
314
330
37
100
AcDbEntity
  8
0
  6
Continuous
 62
     7
100
AcDbCircle
 10
271.1449369510616
 20
151.5458092335645
 30
0.0
 40
9.316016313099998
100
AcDbArc
 50
0.0024872309993145
 51
0.3244873960001416
  0
ARC
  5
315
330
37
100
AcDbEntity
  8
0
  6
Continuous
 62
     7
100
AcDbCircle
 10
288.5694011390616
 20
149.2440591892645
 30
0.0
 40
9.316016313099998
100
AcDbArc
 50
180.0024872309993
 51
180.3244873960001
  0
ARC
  5
316
330
37
100
AcDbEntity
  8
0
  6
Continuous
 62
     7
100
AcDbCircle
 10
288.5693908187615
 20
151.5458092469645
 30
0.0
 40
9.316005992799999
100
AcDbArc
 50
179.6755123275003
 51
179.9975127483992
  0
ARC
  5
317
330
37
100
AcDbEntity
  8
0
  6
Continuous
 62
     7
100
AcDbCircle
 10
271.1449472713616
 20
149.2440591758645
 30
0.0
 40
9.316005992799999
100
AcDbArc
 50
359.6755123275003
 51
359.9975127483992
  0
CIRCLE
  5
318
330
37
100
AcDbEntity
  8
0
  6
Continuous
 62
     7
100
AcDbCircle
 10
279.8571690450616
 20
150.3949342114645
 30
0.0
 40
3.299999999999999
  0
ARC
  5
319
330
37
100
AcDbEntity
  8
0
  6
Continuous
 62
     7
100
AcDbCircle
 10
279.8575520428616
 20
150.3950106523645
 30
0.0
 40
1.300383
100
AcDbArc
 50
157.8211234804011
 51
202.1789024744014
  0
ARC
  5
31A
330
37
100
AcDbEntity
  8
0
  6
Continuous
 62
     7
100
AcDbCircle
 10
279.8567860472616
 20
150.3948577705645
 30
0.0
 40
1.300383
100
AcDbArc
 50
337.8211234804011
 51
22.1789024744014
  0
ARC
  5
31B
330
37
100
AcDbEntity
  8
0
  6
Continuous
 62
     7
100
AcDbCircle
 10
279.8571647528615
 20
150.3949288915645
 30
0.0
 40
1.299993182699999
100
AcDbArc
 50
207.6744863230004
 51
242.3254625305015
  0
ARC
  5
31C
330
37
100
AcDbEntity
  8
0
  6
Continuous
 62
     7
100
AcDbCircle
 10
279.8571733372615
 20
150.3949395313645
 30
0.0
 40
1.299993182699999
100
AcDbArc
 50
27.67448632300046
 51
62.3254625305015
  0
ARC
  5
31D
330
37
100
AcDbEntity
  8
0
  6
Continuous
 62
     7
100
AcDbCircle
 10
279.8571732877615
 20
150.3949288359645
 30
0.0
 40
1.2999931709
100
AcDbArc
 50
297.6745402032027
 51
332.3255161707014
  0
ARC
  5
31E
330
37
100
AcDbEntity
  8
0
  6
Continuous
 62
     7
100
AcDbCircle
 10
279.8571648023616
 20
150.3949395869645
 30
0.0
 40
1.2999931709
100
AcDbArc
 50
117.6745402032027
 51
152.3255161707014
  0
ARC
  5
31F
330
37
100
AcDbEntity
  8
0
  6
Continuous
 62
     7
100
AcDbCircle
 10
279.8571690542616
 20
150.3949061269645
 30
0.0
 40
1.2999719153
100
AcDbArc
 50
247.8175468507977
 51
292.1824531492023
  0
ARC
  5
320
330
37
100
AcDbEntity
  8
0
  6
Continuous
 62
     7
100
AcDbCircle
 10
279.8571690357615
 20
150.3949622959645
 30
0.0
 40
1.2999719153
100
AcDbArc
 50
67.81754685079772
 51
112.1824531492022
  0
SPLINE
  5
321
330
37
100
AcDbEntity
  8
0
  6
Continuous
 62
     7
100
AcDbSpline
210
0.0
220
0.0
230
1.0
 70
     8
 71
     3
 72
    23
 73
    19
 74
     0
 42
0.0000000001
 43
0.0000000001
 40
0.0
 40
0.0
 40
0.0
 40
0.0
 40
0.0626676581
 40
0.1254070739
 40
0.1880244496
 40
0.2504807801
 40
0.3128050332
 40
0.3751163047999999
 40
0.4375187377000001
 40
0.4999802067
 40
0.5624408362
 40
0.6248419654
 40
0.6871555599
 40
0.749488294
 40
0.8119542124
 40
0.8745742365000001
 40
0.9373086028000001
 40
1.0
 40
1.0
 40
1.0
 40
1.0
 10
226.9623431055616
 20
119.7449342114645
 30
0.0
 10
226.8966867868615
 20
119.7449342114645
 30
0.0
 10
226.7649385614616
 20
119.7577239535645
 30
0.0
 10
226.5751430930616
 20
119.8148348550645
 30
0.0
 10
226.4002767225615
 20
119.9078414291645
 30
0.0
 10
226.2473789663616
 20
120.0330276783645
 30
0.0
 10
226.1221645346616
 20
120.1854845425645
 30
0.0
 10
226.0292020373615
 20
120.3594241989645
 30
0.0
 10
225.9719361608615
 20
120.5482995636645
 30
0.0
 10
225.9525824106615
 20
120.7448704187645
 30
0.0
 10
225.9719112456616
 20
120.9414423067645
 30
0.0
 10
226.0291526664615
 20
121.1303252142645
 30
0.0
 10
226.1220975825615
 20
121.3042857183645
 30
0.0
 10
226.2473088856616
 20
121.4567734411645
 30
0.0
 10
226.4002134942616
 20
121.5819864460645
 30
0.0
 10
226.5750808301616
 20
121.6750076631645
 30
0.0
 10
226.7648936797616
 20
121.7321376167645
 30
0.0
 10
226.8966619156615
 20
121.7449342114645
 30
0.0
 10
226.9623431055616
 20
121.7449342114645
 30
0.0
  0
SPLINE
  5
322
330
37
100
AcDbEntity
  8
0
  6
Continuous
 62
     7
100
AcDbSpline
210
0.0
220
0.0
230
1.0
 70
     8
 71
     3
 72
    18
 73
    14
 74
     0
 42
0.0000000001
 43
0.0000000001
 40
0.0
 40
0.0
 40
0.0
 40
0.0
 40
0.0629511463
 40
0.1259536854
 40
0.2510599657
 40
0.3753566924
 40
0.4997207797
 40
0.6241128778000001
 40
0.7484214990000001
 40
0.8110491468000001
 40
0.8740825441
 40
0.9370907219999999
 40
1.0
 40
1.0
 40
1.0
 40
1.0
 10
226.9623431055616
 20
119.9949342114645
 30
0.0
 10
227.0118666159616
 20
119.9949342114645
 30
0.0
 10
227.1112528844616
 20
120.0046493008645
 30
0.0
 10
227.3013701162615
 20
120.0616497048645
 30
0.0
 10
227.5124739907616
 20
120.2003136230645
 30
0.0
 10
227.6822036376616
 20
120.4495994421645
 30
0.0
 10
227.7423344527616
 20
120.7450197676645
 30
0.0
 10
227.6823000744615
 20
121.0403078304645
 30
0.0
 10
227.5402614794616
 20
121.2482590607645
 30
0.0
 10
227.3864910847616
 20
121.3724614759645
 30
0.0
 10
227.2543781324616
 20
121.4422507407645
 30
0.0
 10
227.1111632653616
 20
121.4852567528645
 30
0.0
 10
227.0118336782616
 20
121.4949342114645
 30
0.0
 10
226.9623431055616
 20
121.4949342114645
 30
0.0
  0
SPLINE
  5
323
330
37
100
AcDbEntity
  8
0
  6
Continuous
 62
     7
100
AcDbSpline
210
0.0
220
0.0
230
1.0
 70
     8
 71
     3
 72
     9
 73
     5
 74
     0
 42
0.0000000001
 43
0.0000000001
 40
0.0
 40
0.0
 40
0.0
 40
0.0
 40
0.7479362106
 40
1.0
 40
1.0
 40
1.0
 40
1.0
 10
218.8399466265615
 20
123.7449342114645
 30
0.0
 10
218.8258791742616
 20
123.7449342114645
 30
0.0
 10
218.8069473028615
 20
123.7423988805645
 30
0.0
 10
218.7889959809615
 20
123.7367591788645
 30
0.0
 10
218.7845381475615
 20
123.7351455146645
 30
0.0
  0
SPLINE
  5
324
330
37
100
AcDbEntity
  8
0
  6
Continuous
 62
     7
100
AcDbSpline
210
0.0
220
0.0
230
1.0
 70
     8
 71
     3
 72
    11
 73
     7
 74
     0
 42
0.0000000001
 43
0.0000000001
 40
0.0
 40
0.0
 40
0.0
 40
0.0
 40
0.238921632
 40
0.4858695067000001
 40
0.7405908433000001
 40
1.0
 40
1.0
 40
1.0
 40
1.0
 10
218.7845381475615
 20
123.7351455146645
 30
0.0
 10
218.7665179928615
 20
123.7286225076645
 30
0.0
 10
218.7319757053616
 20
123.7087756972645
 30
0.0
 10
218.6919763275616
 20
123.6636101191645
 30
0.0
 10
218.6664548564615
 20
123.6072219366645
 30
0.0
 10
218.6606410219615
 20
123.5657419970645
 30
0.0
 10
218.6606410219615
 20
123.5449342114645
 30
0.0
  0
SPLINE
  5
325
330
37
100
AcDbEntity
  8
0
  6
Continuous
 62
     7
100
AcDbSpline
210
0.0
220
0.0
230
1.0
 70
     8
 71
     3
 72
     9
 73
     5
 74
     0
 42
0.0000000001
 43
0.0000000001
 40
0.0
 40
0.0
 40
0.0
 40
0.0
 40
0.7479362115000001
 40
1.0
 40
1.0
 40
1.0
 40
1.0
 10
218.8399466265615
 20
117.7449342114645
 30
0.0
 10
218.8258791780615
 20
117.7449342114645
 30
0.0
 10
218.8069473118616
 20
117.7474695408645
 30
0.0
 10
218.7889959944616
 20
117.7531092395645
 30
0.0
 10
218.7845381621615
 20
117.7547229028645
 30
0.0
  0
SPLINE
  5
326
330
37
100
AcDbEntity
  8
0
  6
Continuous
 62
     7
100
AcDbSpline
210
0.0
220
0.0
230
1.0
 70
     8
 71
     3
 72
    11
 73
     7
 74
     0
 42
0.0000000001
 43
0.0000000001
 40
0.0
 40
0.0
 40
0.0
 40
0.0
 40
0.2389216312
 40
0.4858695060000001
 40
0.7405908431000001
 40
1.0
 40
1.0
 40
1.0
 40
1.0
 10
218.7845381621615
 20
117.7547229028645
 30
0.0
 10
218.7665180057615
 20
117.7612459085645
 30
0.0
 10
218.7319757143616
 20
117.7810927175645
 30
0.0
 10
218.6919763317616
 20
117.8262582965645
 30
0.0
 10
218.6664548570616
 20
117.8826464820645
 30
0.0
 10
218.6606410222615
 20
117.9241264244645
 30
0.0
 10
218.6606410222615
 20
117.9449342114645
 30
0.0
  0
SPLINE
  5
327
330
37
100
AcDbEntity
  8
0
  6
Continuous
 62
     7
100
AcDbSpline
210
0.0
220
0.0
230
1.0
 70
     8
 71
     3
 72
    11
 73
     7
 74
     0
 42
0.0000000001
 43
0.0000000001
 40
0.0
 40
0.0
 40
0.0
 40
0.0
 40
0.2373153315
 40
0.4822162276000001
 40
0.7375277643000002
 40
1.0
 40
1.0
 40
1.0
 40
1.0
 10
219.7406976332616
 20
117.7449342114645
 30
0.0
 10
219.7172656485616
 20
117.7449342114645
 30
0.0
 10
219.6690602959616
 20
117.7557819375645
 30
0.0
 10
219.6095541183615
 20
117.8011054627645
 30
0.0
 10
219.5704013726615
 20
117.8674153649645
 30
0.0
 10
219.5613920286616
 20
117.9190182903645
 30
0.0
 10
219.5613920286616
 20
117.9449342114645
 30
0.0
  0
SPLINE
  5
328
330
37
100
AcDbEntity
  8
0
  6
Continuous
 62
     7
100
AcDbSpline
210
0.0
220
0.0
230
1.0
 70
     8
 71
     3
 72
    19
 73
    15
 74
     0
 42
0.0000000001
 43
0.0000000001
 40
0.0
 40
0.0
 40
0.0
 40
0.0
 40
0.0628879342
 40
0.1257674933
 40
0.1887051749
 40
0.2512487747
 40
0.3755668212
 40
0.5000414788000001
 40
0.6245156341
 40
0.7488122542
 40
0.8113497631999999
 40
0.8742564784999999
 40
0.9371478868
 40
1.0
 40
1.0
 40
1.0
 40
1.0
 10
226.9602339628616
 20
121.4949342114645
 30
0.0
 10
226.9108705420616
 20
121.4949342114645
 30
0.0
 10
226.8118776975616
 20
121.4853408472645
 30
0.0
 10
226.6691571595615
 20
121.4424749456645
 30
0.0
 10
226.5376819141616
 20
121.3726703617645
 30
0.0
 10
226.3848573611616
 20
121.2481617771645
 30
0.0
 10
226.2445917825615
 20
121.0396340156645
 30
0.0
 10
226.1859599503616
 20
120.7448347410645
 30
0.0
 10
226.2446677427615
 20
120.4500660169645
 30
0.0
 10
226.3849706099616
 20
120.2415974038645
 30
0.0
 10
226.5377726066615
 20
120.1171331515645
 30
0.0
 10
226.6692435754616
 20
120.0473650307645
 30
0.0
 10
226.8119244604616
 20
120.0045178795645
 30
0.0
 10
226.9108986594615
 20
119.9949342114645
 30
0.0
 10
226.9602339628616
 20
119.9949342114645
 30
0.0
  0
SPLINE
  5
329
330
37
100
AcDbEntity
  8
0
  6
Continuous
 62
     7
100
AcDbSpline
210
0.0
220
0.0
230
1.0
 70
     8
 71
     3
 72
    23
 73
    19
 74
     0
 42
0.0000000001
 43
0.0000000001
 40
0.0
 40
0.0
 40
0.0
 40
0.0
 40
0.0628514463
 40
0.1259229855
 40
0.1888522357
 40
0.2514319756
 40
0.3136341067
 40
0.3756649888
 40
0.437800418
 40
0.4999855423
 40
0.5621607435
 40
0.6242710545
 40
0.6862824556999999
 40
0.7484900526000001
 40
0.8110929884
 40
0.8740433955
 40
0.9371213206
 40
1.0
 40
1.0
 40
1.0
 40
1.0
 10
226.9623431055616
 20
121.7449342114645
 30
0.0
 10
227.0285094846615
 20
121.7449342114645
 30
0.0
 10
227.1614312833616
 20
121.7319306015645
 30
0.0
 10
227.3529622130616
 20
121.6743000977645
 30
0.0
 10
227.5295716356616
 20
121.5808795739645
 30
0.0
 10
227.6840782314616
 20
121.4556909503645
 30
0.0
 10
227.8108262176615
 20
121.3036802030645
 30
0.0
 10
227.9053026819615
 20
121.1302766408645
 30
0.0
 10
227.9637812914616
 20
120.9416491062645
 30
0.0
 10
227.9836065505616
 20
120.7449908422645
 30
0.0
 10
227.9638055410615
 20
120.5483573181645
 30
0.0
 10
227.9053755824616
 20
120.3597763348645
 30
0.0
 10
227.8109601197616
 20
120.1863876857645
 30
0.0
 10
227.6842443901616
 20
120.0343370157645
 30
0.0
 10
227.5297219327615
 20
119.9090825751645
 30
0.0
 10
227.3530769526616
 20
119.8156123426645
 30
0.0
 10
227.1614958254616
 20
119.7579470289645
 30
0.0
 10
227.0285381540616
 20
119.7449342114645
 30
0.0
 10
226.9623431055616
 20
119.7449342114645
 30
0.0
  0
SPLINE
  5
32A
330
37
100
AcDbEntity
  8
0
  6
Continuous
 62
     7
100
AcDbSpline
210
0.0
220
0.0
230
1.0
 70
     8
 71
     3
 72
    19
 73
    15
 74
     0
 42
0.0000000001
 43
0.0000000001
 40
0.0
 40
0.0
 40
0.0
 40
0.0
 40
0.0628416757
 40
0.1256819103
 40
0.188593164
 40
0.2511273743
 40
0.3754807315
 40
0.50004151
 40
0.6246017664
 40
0.7489336519
 40
0.8114617594
 40
0.8743420476
 40
0.93719412
 40
1.0
 40
1.0
 40
1.0
 40
1.0
 10
226.9623431055616
 20
121.4949342114645
 30
0.0
 10
226.9130529253616
 20
121.4949342114645
 30
0.0
 10
226.8142007553615
 20
121.4853396027645
 30
0.0
 10
226.6716878610616
 20
121.4424692621645
 30
0.0
 10
226.5404070908616
 20
121.3726594560645
 30
0.0
 10
226.3877911645616
 20
121.2481264147645
 30
0.0
 10
226.2477517866616
 20
121.0395730743645
 30
0.0
 10
226.1892352986615
 20
120.7448347668645
 30
0.0
 10
226.2478276023616
 20
120.4501269677645
 30
0.0
 10
226.3879042569615
 20
120.2416327443645
 30
0.0
 10
226.5404976495615
 20
120.1171440519645
 30
0.0
 10
226.6717741599616
 20
120.0473707072645
 30
0.0
 10
226.8142474522616
 20
120.0045191232645
 30
0.0
 10
226.9130810019616
 20
119.9949342114645
 30
0.0
 10
226.9623431055616
 20
119.9949342114645
 30
0.0
  0
SPLINE
  5
32B
330
37
100
AcDbEntity
  8
0
  6
Continuous
 62
     7
100
AcDbSpline
210
0.0
220
0.0
230
1.0
 70
     8
 71
     3
 72
    11
 73
     7
 74
     0
 42
0.0000000001
 43
0.0000000001
 40
0.0
 40
0.0
 40
0.0
 40
0.0
 40
0.3682063817
 40
0.5087059544
 40
0.6638759763000001
 40
1.0
 40
1.0
 40
1.0
 40
1.0
 10
219.7406976332616
 20
117.7449342114645
 30
0.0
 10
219.7687469489616
 20
117.7449342114645
 30
0.0
 10
219.7970814239616
 20
117.7882912045645
 30
0.0
 10
219.8124737641616
 20
117.8344691836645
 30
0.0
 10
219.8232578766616
 20
117.8819452771645
 30
0.0
 10
219.8261208078616
 20
117.9193288733645
 30
0.0
 10
219.8261208078616
 20
117.9449342114645
 30
0.0
  0
SPLINE
  5
32C
330
37
100
AcDbEntity
  8
0
  6
Continuous
 62
     7
100
AcDbSpline
210
0.0
220
0.0
230
1.0
 70
     8
 71
     3
 72
    11
 73
     7
 74
     0
 42
0.0000000001
 43
0.0000000001
 40
0.0
 40
0.0
 40
0.0
 40
0.0
 40
0.3682063788
 40
0.5087059546
 40
0.6638759716
 40
1.0
 40
1.0
 40
1.0
 40
1.0
 10
219.7406976332616
 20
123.7449342114645
 30
0.0
 10
219.7687469487615
 20
123.7449342114645
 30
0.0
 10
219.7970814231616
 20
123.7015772180645
 30
0.0
 10
219.8124737642615
 20
123.6553992397645
 30
0.0
 10
219.8232578767616
 20
123.6079231459645
 30
0.0
 10
219.8261208078616
 20
123.5705395497645
 30
0.0
 10
219.8261208078616
 20
123.5449342114645
 30
0.0
  0
SPLINE
  5
32D
330
37
100
AcDbEntity
  8
0
  6
Continuous
 62
     7
100
AcDbSpline
210
0.0
220
0.0
230
1.0
 70
     8
 71
     3
 72
    11
 73
     7
 74
     0
 42
0.0000000001
 43
0.0000000001
 40
0.0
 40
0.0
 40
0.0
 40
0.0
 40
0.2373153322
 40
0.4822162286000001
 40
0.7375277672000001
 40
1.0
 40
1.0
 40
1.0
 40
1.0
 10
219.7406976332616
 20
123.7449342114645
 30
0.0
 10
219.7172656485616
 20
123.7449342114645
 30
0.0
 10
219.6690602960616
 20
123.7340864847645
 30
0.0
 10
219.6095541177616
 20
123.6887629603645
 30
0.0
 10
219.5704013721615
 20
123.6224530577645
 30
0.0
 10
219.5613920301615
 20
123.5708501322645
 30
0.0
 10
219.5613920301615
 20
123.5449342114645
 30
0.0
  0
SPLINE
  5
32E
330
37
100
AcDbEntity
  8
0
  6
Continuous
 62
     7
100
AcDbSpline
210
0.0
220
0.0
230
1.0
 70
     8
 71
     3
 72
     9
 73
     5
 74
     0
 42
0.0000000001
 43
0.0000000001
 40
0.0
 40
0.0
 40
0.0
 40
0.0
 40
0.5108154567000001
 40
1.0
 40
1.0
 40
1.0
 40
1.0
 10
242.4853611705615
 20
137.2108923211645
 30
0.0
 10
242.8314532143616
 20
136.5021835555645
 30
0.0
 10
243.5098003067616
 20
135.1155646410645
 30
0.0
 10
244.0382526414615
 20
133.6558479191645
 30
0.0
 10
244.2174119781616
 20
132.9221021163645
 30
0.0
  0
SPLINE
  5
32F
330
37
100
AcDbEntity
  8
0
  6
Continuous
 62
     7
100
AcDbSpline
210
0.0
220
0.0
230
1.0
 70
     8
 71
     3
 72
     9
 73
     5
 74
     0
 42
0.0000000001
 43
0.0000000001
 40
0.0
 40
0.0
 40
0.0
 40
0.0
 40
0.4891845433000001
 40
1.0
 40
1.0
 40
1.0
 40
1.0
 10
244.2174119781616
 20
119.3221021163645
 30
0.0
 10
244.0382526414615
 20
118.5883563134645
 30
0.0
 10
243.5098003067616
 20
117.1286395915645
 30
0.0
 10
242.8314532143616
 20
115.7420206771645
 30
0.0
 10
242.4853611705615
 20
115.0333119115645
 30
0.0
  0
SPLINE
  5
330
330
37
100
AcDbEntity
  8
0
  6
Continuous
 62
     3
100
AcDbSpline
210
0.0
220
0.0
230
1.0
 70
     8
 71
     3
 72
    11
 73
     7
 74
     0
 42
0.0000000001
 43
0.0000000001
 40
0.0
 40
0.0
 40
0.0
 40
0.0
 40
0.2406069052
 40
0.4885124115
 40
0.7425490119
 40
1.0
 40
1.0
 40
1.0
 40
1.0
 10
244.3134172594616
 20
119.1963458426645
 30
0.0
 10
244.2160323926615
 20
118.8442320642645
 30
0.0
 10
243.9795664877615
 20
118.1398094353645
 30
0.0
 10
243.5371626217616
 20
117.1019905543645
 30
0.0
 10
243.0279635789616
 20
116.0671084494645
 30
0.0
 10
242.6670597511616
 20
115.3794259853645
 30
0.0
 10
242.4853611705615
 20
115.0333119115645
 30
0.0
  0
SPLINE
  5
331
330
37
100
AcDbEntity
  8
0
  6
Continuous
 62
     3
100
AcDbSpline
210
0.0
220
0.0
230
1.0
 70
     8
 71
     3
 72
    11
 73
     7
 74
     0
 42
0.0000000001
 43
0.0000000001
 40
0.0
 40
0.0
 40
0.0
 40
0.0
 40
0.2574509881
 40
0.5114875885
 40
0.7593930948000001
 40
1.0
 40
1.0
 40
1.0
 40
1.0
 10
242.4853611705615
 20
137.2108923211645
 30
0.0
 10
242.6670597511616
 20
136.8647782472645
 30
0.0
 10
243.0279635789616
 20
136.1770957831645
 30
0.0
 10
243.5371626217616
 20
135.1422136783645
 30
0.0
 10
243.9795664877615
 20
134.1043947973645
 30
0.0
 10
244.2160323926615
 20
133.3999721683645
 30
0.0
 10
244.3134172594616
 20
133.0478583900645
 30
0.0
  0
LINE
  5
332
330
37
100
AcDbEntity
  8
0
  6
Continuous
 62
     7
100
AcDbLine
 10
221.3071690450615
 20
166.8949342114645
 30
0.0
 11
221.3071690450615
 21
179.8949342114645
 31
0.0
  0
LINE
  5
333
330
37
100
AcDbEntity
  8
0
  6
Continuous
 62
     7
100
AcDbLine
 10
234.2071690450616
 20
179.8949342114645
 30
0.0
 11
234.2071690450616
 21
166.8949342114645
 31
0.0
  0
LINE
  5
334
330
37
100
AcDbEntity
  8
0
  6
Continuous
 62
     7
100
AcDbLine
 10
249.7571690450616
 20
179.8949342114645
 30
0.0
 11
249.7571690450616
 21
163.2549342114645
 31
0.0
  0
LINE
  5
335
330
37
100
AcDbEntity
  8
0
  6
Continuous
 62
     7
100
AcDbLine
 10
261.7571690450616
 20
163.2549342114645
 30
0.0
 11
261.7571690450616
 21
179.8949342114645
 31
0.0
  0
LINE
  5
336
330
37
100
AcDbEntity
  8
0
  6
Continuous
 62
     7
100
AcDbLine
 10
261.7571690450616
 20
179.8949342114645
 30
0.0
 11
249.7571690450616
 21
179.8949342114645
 31
0.0
  0
LINE
  5
337
330
37
100
AcDbEntity
  8
0
  6
Continuous
 62
     7
100
AcDbLine
 10
234.2071690450616
 20
179.8949342114645
 30
0.0
 11
221.3071690450615
 21
179.8949342114645
 31
0.0
  0
LINE
  5
338
330
37
100
AcDbEntity
  8
0
  6
Continuous
 62
     7
100
AcDbLine
 10
234.2071690450616
 20
166.8949342114645
 30
0.0
 11
221.3071690450615
 21
166.8949342114645
 31
0.0
  0
LINE
  5
339
330
37
100
AcDbEntity
  8
0
  6
Continuous
 62
     7
100
AcDbLine
 10
249.7571690450616
 20
163.2549342114645
 30
0.0
 11
261.7571690450616
 21
163.2549342114645
 31
0.0
  0
ENDSEC
  0
SECTION
  2
OBJECTS
  0
DICTIONARY
  5
C
330
0
100
AcDbDictionary
281
     1
  3
ACAD_2007HEADERVARS_RT
350
341
  3
ACAD_COLOR
350
30
  3
ACAD_GROUP
350
D
  3
ACAD_LAYOUT
350
2F
  3
ACAD_MATERIAL
350
10
  3
ACAD_MLINESTYLE
350
2C
  3
ACAD_PLOTSETTINGS
350
2E
  3
ACAD_PLOTSTYLENAME
350
E
  3
ACAD_TABLESTYLE
350
31
  3
ACAD_VISUALSTYLE
350
14
  3
AcDbVariableDictionary
350
33A
  3
DWGPROPS
350
340
  0
DICTIONARY
  5
341
102
{ACAD_REACTORS
330
C
102
}
330
C
100
AcDbDictionary
281
     1
  3
DIMJOGANG
350
342
  0
DICTIONARY
  5
30
102
{ACAD_REACTORS
330
C
102
}
330
C
100
AcDbDictionary
281
     1
  0
DICTIONARY
  5
D
102
{ACAD_REACTORS
330
C
102
}
330
C
100
AcDbDictionary
281
     1
  0
DICTIONARY
  5
2F
102
{ACAD_REACTORS
330
C
102
}
330
C
100
AcDbDictionary
281
     1
  3
Model
350
3A
  3
1
350
36
  3
2
350
3E
  0
DICTIONARY
  5
10
102
{ACAD_REACTORS
330
C
102
}
330
C
100
AcDbDictionary
281
     1
  3
ByBlock
350
12
  3
ByLayer
350
11
  3
Global
350
13
  0
DICTIONARY
  5
2C
102
{ACAD_REACTORS
330
C
102
}
330
C
100
AcDbDictionary
281
     1
  3
Standard
350
2D
  0
DICTIONARY
  5
2E
102
{ACAD_REACTORS
330
C
102
}
330
C
100
AcDbDictionary
281
     1
  0
ACDBDICTIONARYWDFLT
  5
E
102
{ACAD_REACTORS
330
C
102
}
330
C
100
AcDbDictionary
281
     1
  3
Normal
350
F
100
AcDbDictionaryWithDefault
340
F
  0
DICTIONARY
  5
31
102
{ACAD_REACTORS
330
C
102
}
330
C
100
AcDbDictionary
281
     1
  3
Standard
350
32
  0
DICTIONARY
  5
14
102
{ACAD_REACTORS
330
C
102
}
330
C
100
AcDbDictionary
281
     1
  3
2dWireframe
350
1A
  3
3D Hidden
350
1C
  3
3dWireframe
350
1B
  3
Basic
350
19
  3
Brighten
350
20
  3
ColorChange
350
24
  3
Conceptual
350
1D
  3
Dim
350
1F
  3
Facepattern
350
23
  3
Flat
350
15
  3
FlatWithEdges
350
16
  3
Gouraud
350
17
  3
GouraudWithEdges
350
18
  3
Linepattern
350
22
  3
Realistic
350
1E
  3
Thicken
350
21
  0
DICTIONARY
  5
33A
102
{ACAD_REACTORS
330
C
102
}
330
C
100
AcDbDictionary
281
     1
  3
CTABLESTYLE
350
33B
  3
DIMASSOC
350
33F
  3
HIDETEXT
350
33E
  3
INDEXCTL
350
33D
  3
SORTENTS
350
33C
  0
XRECORD
  5
340
102
{ACAD_REACTORS
330
C
102
}
330
C
100
AcDbXrecord
280
     1
  1
DWGPROPS COOKIE
  2

  3

  4

  6

  7

  8
Administrator
  9

300
=
301
=
302
=
303
=
304
=
305
=
306
=
307
=
308
=
309
=
 40
0.0004163310185185
 41
2457333.457949422
 42
2457333.458365023
  1

 90
        0
  0
XRECORD
  5
342
102
{ACAD_REACTORS
330
341
102
}
330
341
100
AcDbXrecord
280
     1
 40
1.570796326794896
  0
LAYOUT
  5
3A
102
{ACAD_XDICTIONARY
360
34D
102
}
102
{ACAD_REACTORS
330
2F
102
}
330
2F
100
AcDbPlotSettings
  1

  2
C:\Users\Administrator\AppData\Roaming\Autodesk\AutoCAD 2007\R17.0\chs\plotters\Default Windows System Printer.pc3
  4

  6

 40
0.0
 41
0.0
 42
0.0
 43
0.0
 44
0.0
 45
0.0
 46
0.0
 47
0.0
 48
0.0
 49
0.0
140
0.0
141
0.0
142
1.0
143
1.0
 70
  1712
 72
     0
 73
     0
 74
     0
  7

 75
     0
147
1.0
148
0.0
149
0.0
100
AcDbLayout
  1
Model
 70
     1
 71
     0
 10
0.0
 20
0.0
 11
12.0
 21
9.0
 12
0.0
 22
0.0
 32
0.0
 14
0.0
 24
0.0
 34
0.0
 15
0.0
 25
0.0
 35
0.0
146
0.0
 13
0.0
 23
0.0
 33
0.0
 16
1.0
 26
0.0
 36
0.0
 17
0.0
 27
1.0
 37
0.0
 76
     0
330
37
331
28
  0
LAYOUT
  5
36
102
{ACAD_XDICTIONARY
360
34B
102
}
102
{ACAD_REACTORS
330
2F
102
}
330
2F
100
AcDbPlotSettings
  1

  2
C:\Users\Administrator\AppData\Roaming\Autodesk\AutoCAD 2007\R17.0\chs\plotters\Default Windows System Printer.pc3
  4

  6

 40
0.0
 41
0.0
 42
0.0
 43
0.0
 44
0.0
 45
0.0
 46
0.0
 47
0.0
 48
0.0
 49
0.0
140
0.0
141
0.0
142
1.0
143
1.0
 70
   688
 72
     0
 73
     0
 74
     5
  7

 75
    16
147
1.0
148
0.0
149
0.0
100
AcDbLayout
  1
1
 70
     1
 71
     1
 10
0.0
 20
0.0
 11
420.0
 21
297.0
 12
0.0
 22
0.0
 32
0.0
 14
1.000000000000000E+20
 24
1.000000000000000E+20
 34
1.000000000000000E+20
 15
-1.000000000000000E+20
 25
-1.000000000000000E+20
 35
-1.000000000000000E+20
146
0.0
 13
0.0
 23
0.0
 33
0.0
 16
1.0
 26
0.0
 36
0.0
 17
0.0
 27
1.0
 37
0.0
 76
     0
330
33
  0
LAYOUT
  5
3E
102
{ACAD_XDICTIONARY
360
34F
102
}
102
{ACAD_REACTORS
330
2F
102
}
330
2F
100
AcDbPlotSettings
  1

  2
C:\Users\Administrator\AppData\Roaming\Autodesk\AutoCAD 2007\R17.0\chs\plotters\Default Windows System Printer.pc3
  4

  6

 40
0.0
 41
0.0
 42
0.0
 43
0.0
 44
0.0
 45
0.0
 46
0.0
 47
0.0
 48
0.0
 49
0.0
140
0.0
141
0.0
142
1.0
143
1.0
 70
   688
 72
     0
 73
     0
 74
     5
  7

 75
    16
147
1.0
148
0.0
149
0.0
100
AcDbLayout
  1
2
 70
     1
 71
     2
 10
0.0
 20
0.0
 11
12.0
 21
9.0
 12
0.0
 22
0.0
 32
0.0
 14
0.0
 24
0.0
 34
0.0
 15
0.0
 25
0.0
 35
0.0
146
0.0
 13
0.0
 23
0.0
 33
0.0
 16
1.0
 26
0.0
 36
0.0
 17
0.0
 27
1.0
 37
0.0
 76
     0
330
3B
  0
MATERIAL
  5
12
102
{ACAD_XDICTIONARY
360
345
102
}
102
{ACAD_REACTORS
330
10
102
}
330
10
100
AcDbMaterial
  1
ByBlock
  0
MATERIAL
  5
11
102
{ACAD_XDICTIONARY
360
343
102
}
102
{ACAD_REACTORS
330
10
102
}
330
10
100
AcDbMaterial
  1
ByLayer
  0
MATERIAL
  5
13
102
{ACAD_XDICTIONARY
360
347
102
}
102
{ACAD_REACTORS
330
10
102
}
330
10
100
AcDbMaterial
  1
Global
  0
MLINESTYLE
  5
2D
102
{ACAD_REACTORS
330
2C
102
}
330
2C
100
AcDbMlineStyle
  2
STANDARD
 70
     0
  3

 62
   256
 51
90.0
 52
90.0
 71
     2
 49
0.5
 62
   256
  6
BYLAYER
 49
-0.5
 62
   256
  6
BYLAYER
  0
ACDBPLACEHOLDER
  5
F
102
{ACAD_REACTORS
330
E
102
}
330
E
  0
TABLESTYLE
  5
32
102
{ACAD_XDICTIONARY
360
349
102
}
102
{ACAD_REACTORS
330
31
102
}
330
31
100
AcDbTableStyle
  3
Standard
 70
     0
 71
     0
 40
1.5
 41
1.5
280
     0
281
     0
  7
Standard
140
4.5
170
     2
 62
     0
 63
     7
283
     0
274
    -2
284
     1
 64
     0
275
    -2
285
     1
 65
     0
276
    -2
286
     1
 66
     0
277
    -2
287
     1
 67
     0
278
    -2
288
     1
 68
     0
279
    -2
289
     1
 69
     0
  7
Standard
140
6.0
170
     5
 62
     0
 63
     7
283
     0
274
    -2
284
     1
 64
     0
275
    -2
285
     1
 65
     0
276
    -2
286
     1
 66
     0
277
    -2
287
     1
 67
     0
278
    -2
288
     1
 68
     0
279
    -2
289
     1
 69
     0
  7
Standard
140
4.5
170
     5
 62
     0
 63
     7
283
     0
274
    -2
284
     1
 64
     0
275
    -2
285
     1
 65
     0
276
    -2
286
     1
 66
     0
277
    -2
287
     1
 67
     0
278
    -2
288
     1
 68
     0
279
    -2
289
     1
 69
     0
  0
VISUALSTYLE
  5
1A
102
{ACAD_REACTORS
330
14
102
}
330
14
100
AcDbVisualStyle
  2
2dWireframe
 70
     4
 71
     0
 72
     2
 73
     0
 90
        0
 40
-0.6
 41
-30.0
 62
     5
 63
     7
 74
     1
 91
        4
 64
     7
 65
   257
 75
     1
175
     1
 42
1.0
 92
        0
 66
   257
 43
1.0
 76
     1
 77
     6
 78
     2
 67
     7
 79
     5
170
     0
171
     0
290
     0
174
     0
 93
        1
 44
0.0
173
     0
291
     0
 45
0.0
1001
ACAD
1000
AcDbSavedByObjectVersion
1070
     0
  0
VISUALSTYLE
  5
1C
102
{ACAD_REACTORS
330
14
102
}
330
14
100
AcDbVisualStyle
  2
3D Hidden
 70
     6
 71
     1
 72
     2
 73
     2
 90
        0
 40
-0.6
 41
-30.0
 62
     5
 63
     7
 74
     2
 91
        2
 64
     7
 65
   257
 75
     2
175
     1
 42
40.0
 92
        0
 66
   257
 43
1.0
 76
     1
 77
     6
 78
     2
 67
     7
 79
     3
170
     0
171
     0
290
     0
174
     0
 93
        1
 44
0.0
173
     0
291
     0
 45
0.0
1001
ACAD
1000
AcDbSavedByObjectVersion
1070
     0
  0
VISUALSTYLE
  5
1B
102
{ACAD_REACTORS
330
14
102
}
330
14
100
AcDbVisualStyle
  2
3dWireframe
 70
     5
 71
     0
 72
     2
 73
     0
 90
        0
 40
-0.6
 41
-30.0
 62
     5
 63
     7
 74
     1
 91
        4
 64
     7
 65
   257
 75
     1
175
     1
 42
1.0
 92
        0
 66
   257
 43
1.0
 76
     1
 77
     6
 78
     2
 67
     7
 79
     5
170
     0
171
     0
290
     0
174
     0
 93
        1
 44
0.0
173
     0
291
     0
 45
0.0
1001
ACAD
1000
AcDbSavedByObjectVersion
1070
     0
  0
VISUALSTYLE
  5
19
102
{ACAD_REACTORS
330
14
102
}
330
14
100
AcDbVisualStyle
  2
Basic
 70
     7
 71
     1
 72
     0
 73
     1
 90
        0
 40
-0.6
 41
-30.0
 62
     5
 63
     7
 74
     0
 91
        4
 64
     7
 65
   257
 75
     1
175
     1
 42
1.0
 92
        8
 66
     7
 43
1.0
 76
     1
 77
     6
 78
     2
 67
     7
 79
     5
170
     0
171
     0
290
     0
174
     0
 93
        1
 44
0.0
173
     0
291
     1
 45
0.0
1001
ACAD
1000
AcDbSavedByObjectVersion
1070
     0
  0
VISUALSTYLE
  5
20
102
{ACAD_REACTORS
330
14
102
}
330
14
100
AcDbVisualStyle
  2
Brighten
 70
    12
 71
     2
 72
     2
 73
     0
 90
        0
 40
-0.6
 41
-30.0
 62
     5
 63
     7
 74
     1
 91
        4
 64
     7
 65
   257
 75
     1
175
     1
 42
1.0
 92
        8
 66
     7
 43
1.0
 76
     1
 77
     6
 78
     2
 67
     7
 79
     5
170
     0
171
     0
290
     0
174
     0
 93
        1
 44
50.0
173
     0
291
     1
 45
0.0
1001
ACAD
1000
AcDbSavedByObjectVersion
1070
     0
  0
VISUALSTYLE
  5
24
102
{ACAD_REACTORS
330
14
102
}
330
14
100
AcDbVisualStyle
  2
ColorChange
 70
    16
 71
     2
 72
     2
 73
     3
 90
        0
 40
-0.6
 41
-30.0
 62
     5
 63
     8
 74
     1
 91
        4
 64
     7
 65
   257
 75
     1
175
     1
 42
1.0
 92
        8
 66
     8
 43
1.0
 76
     1
 77
     6
 78
     2
 67
     7
 79
     5
170
     0
171
     0
290
     0
174
     0
 93
        1
 44
0.0
173
     0
291
     1
 45
0.0
1001
ACAD
1000
AcDbSavedByObjectVersion
1070
     0
  0
VISUALSTYLE
  5
1D
102
{ACAD_REACTORS
330
14
102
}
330
14
100
AcDbVisualStyle
  2
Conceptual
 70
     9
 71
     3
 72
     2
 73
     0
 90
        0
 40
-0.6
 41
-30.0
 62
     5
 63
     7
 74
     2
 91
        2
 64
     7
 65
   257
 75
     1
175
     1
 42
40.0
 92
        8
 66
     7
 43
1.0
 76
     1
 77
     6
 78
     2
 67
     7
 79
     3
170
     0
171
     0
290
     0
174
     0
 93
        1
 44
0.0
173
     0
291
     0
 45
0.0
1001
ACAD
1000
AcDbSavedByObjectVersion
1070
     0
  0
VISUALSTYLE
  5
1F
102
{ACAD_REACTORS
330
14
102
}
330
14
100
AcDbVisualStyle
  2
Dim
 70
    11
 71
     2
 72
     2
 73
     0
 90
        0
 40
-0.6
 41
-30.0
 62
     5
 63
     7
 74
     1
 91
        4
 64
     7
 65
   257
 75
     1
175
     1
 42
1.0
 92
        8
 66
     7
 43
1.0
 76
     1
 77
     6
 78
     2
 67
     7
 79
     5
170
     0
171
     0
290
     0
174
     0
 93
        1
 44
-50.0
173
     0
291
     1
 45
0.0
1001
ACAD
1000
AcDbSavedByObjectVersion
1070
     0
  0
VISUALSTYLE
  5
23
102
{ACAD_REACTORS
330
14
102
}
330
14
100
AcDbVisualStyle
  2
Facepattern
 70
    15
 71
     2
 72
     2
 73
     0
 90
        0
 40
-0.6
 41
-30.0
 62
     5
 63
     7
 74
     1
 91
        4
 64
     7
 65
   257
 75
     1
175
     1
 42
1.0
 92
        8
 66
     7
 43
1.0
 76
     1
 77
     6
 78
     2
 67
     7
 79
     5
170
     0
171
     0
290
     0
174
     0
 93
        1
 44
0.0
173
     0
291
     1
 45
0.0
1001
ACAD
1000
AcDbSavedByObjectVersion
1070
     0
  0
VISUALSTYLE
  5
15
102
{ACAD_REACTORS
330
14
102
}
330
14
100
AcDbVisualStyle
  2
Flat
 70
     0
 71
     2
 72
     1
 73
     1
 90
        2
 40
-0.6
 41
30.0
 62
     5
 63
     7
 74
     0
 91
        4
 64
     7
 65
   257
 75
     1
175
     1
 42
1.0
 92
        8
 66
     7
 43
1.0
 76
     1
 77
     6
 78
     2
 67
     7
 79
     5
170
     0
171
     0
290
     0
174
     0
 93
       13
 44
0.0
173
     0
291
     1
 45
0.0
1001
ACAD
1000
AcDbSavedByObjectVersion
1070
     0
  0
VISUALSTYLE
  5
16
102
{ACAD_REACTORS
330
14
102
}
330
14
100
AcDbVisualStyle
  2
FlatWithEdges
 70
     1
 71
     2
 72
     1
 73
     1
 90
        2
 40
-0.6
 41
30.0
 62
     5
 63
     7
 74
     1
 91
        4
 64
     7
 65
   257
 75
     1
175
     1
 42
1.0
 92
        0
 66
   257
 43
1.0
 76
     1
 77
     6
 78
     2
 67
     7
 79
     5
170
     0
171
     0
290
     0
174
     0
 93
       13
 44
0.0
173
     0
291
     1
 45
0.0
1001
ACAD
1000
AcDbSavedByObjectVersion
1070
     0
  0
VISUALSTYLE
  5
17
102
{ACAD_REACTORS
330
14
102
}
330
14
100
AcDbVisualStyle
  2
Gouraud
 70
     2
 71
     2
 72
     2
 73
     1
 90
        2
 40
-0.6
 41
30.0
 62
     5
 63
     7
 74
     0
 91
        4
 64
     7
 65
   257
 75
     1
175
     1
 42
1.0
 92
        0
 66
     7
 43
1.0
 76
     1
 77
     6
 78
     2
 67
     7
 79
     5
170
     0
171
     0
290
     0
174
     0
 93
       13
 44
0.0
173
     0
291
     1
 45
0.0
1001
ACAD
1000
AcDbSavedByObjectVersion
1070
     0
  0
VISUALSTYLE
  5
18
102
{ACAD_REACTORS
330
14
102
}
330
14
100
AcDbVisualStyle
  2
GouraudWithEdges
 70
     3
 71
     2
 72
     2
 73
     1
 90
        2
 40
-0.6
 41
30.0
 62
     5
 63
     7
 74
     1
 91
        4
 64
     7
 65
   257
 75
     1
175
     1
 42
1.0
 92
        0
 66
   257
 43
1.0
 76
     1
 77
     6
 78
     2
 67
     7
 79
     5
170
     0
171
     0
290
     0
174
     0
 93
       13
 44
0.0
173
     0
291
     1
 45
0.0
1001
ACAD
1000
AcDbSavedByObjectVersion
1070
     0
  0
VISUALSTYLE
  5
22
102
{ACAD_REACTORS
330
14
102
}
330
14
100
AcDbVisualStyle
  2
Linepattern
 70
    14
 71
     2
 72
     2
 73
     0
 90
        0
 40
-0.6
 41
-30.0
 62
     5
 63
     7
 74
     1
 91
        4
 64
     7
 65
   257
 75
     7
175
     7
 42
1.0
 92
        8
 66
     7
 43
1.0
 76
     1
 77
     6
 78
     2
 67
     7
 79
     5
170
     0
171
     0
290
     0
174
     0
 93
        1
 44
0.0
173
     0
291
     1
 45
0.0
1001
ACAD
1000
AcDbSavedByObjectVersion
1070
     0
  0
VISUALSTYLE
  5
1E
102
{ACAD_REACTORS
330
14
102
}
330
14
100
AcDbVisualStyle
  2
Realistic
 70
     8
 71
     2
 72
     2
 73
     0
 90
        0
 40
-0.6
 41
-30.0
 62
     5
 63
     7
 74
     1
 91
        0
 64
     7
 65
   257
 75
     1
175
     1
 42
1.0
 92
        8
 66
     8
 43
1.0
 76
     1
 77
     6
 78
     2
 67
     7
 79
     5
170
     0
171
     0
290
     0
174
     0
 93
       13
 44
0.0
173
     0
291
     0
 45
0.0
1001
ACAD
1000
AcDbSavedByObjectVersion
1070
     0
  0
VISUALSTYLE
  5
21
102
{ACAD_REACTORS
330
14
102
}
330
14
100
AcDbVisualStyle
  2
Thicken
 70
    13
 71
     2
 72
     2
 73
     0
 90
        0
 40
-0.6
 41
-30.0
 62
     5
 63
     7
 74
     1
 91
        4
 64
     7
 65
   257
 75
     1
175
     1
 42
1.0
 92
       12
 66
     7
 43
1.0
 76
     1
 77
     6
 78
     2
 67
     7
 79
     5
170
     0
171
     0
290
     0
174
     0
 93
        1
 44
0.0
173
     0
291
     1
 45
0.0
1001
ACAD
1000
AcDbSavedByObjectVersion
1070
     0
  0
DICTIONARYVAR
  5
33B
102
{ACAD_REACTORS
330
33A
102
}
330
33A
100
DictionaryVariables
280
     0
  1
STANDARD
  0
DICTIONARYVAR
  5
33F
102
{ACAD_REACTORS
330
33A
102
}
330
33A
100
DictionaryVariables
280
     0
  1
2
  0
DICTIONARYVAR
  5
33E
102
{ACAD_REACTORS
330
33A
102
}
330
33A
100
DictionaryVariables
280
     0
  1
1
  0
DICTIONARYVAR
  5
33D
102
{ACAD_REACTORS
330
33A
102
}
330
33A
100
DictionaryVariables
280
     0
  1
0
  0
DICTIONARYVAR
  5
33C
102
{ACAD_REACTORS
330
33A
102
}
330
33A
100
DictionaryVariables
280
     0
  1
127
  0
DICTIONARY
  5
34D
330
3A
100
AcDbDictionary
280
     1
281
     1
  3
ACAD_XREC_ROUNDTRIP
360
34E
  0
DICTIONARY
  5
34B
330
36
100
AcDbDictionary
280
     1
281
     1
  3
ACAD_XREC_ROUNDTRIP
360
34C
  0
DICTIONARY
  5
34F
330
3E
100
AcDbDictionary
280
     1
281
     1
  3
ACAD_XREC_ROUNDTRIP
360
350
  0
DICTIONARY
  5
345
330
12
100
AcDbDictionary
280
     1
281
     1
  3
ACAD_XREC_ROUNDTRIP
360
346
  0
DICTIONARY
  5
343
330
11
100
AcDbDictionary
280
     1
281
     1
  3
ACAD_XREC_ROUNDTRIP
360
344
  0
DICTIONARY
  5
347
330
13
100
AcDbDictionary
280
     1
281
     1
  3
ACAD_XREC_ROUNDTRIP
360
348
  0
DICTIONARY
  5
349
330
32
100
AcDbDictionary
280
     1
281
     1
  3
ACAD_XREC_ROUNDTRIP
360
34A
  0
XRECORD
  5
34E
102
{ACAD_REACTORS
330
34D
102
}
330
34D
100
AcDbXrecord
280
     1
102
SHADEPLOT
 70
     0
102
SHADEPLOTRESLEVEL
 70
     2
102
SHADEPLOTCUSTOMDPI
 70
   300
  0
XRECORD
  5
34C
102
{ACAD_REACTORS
330
34B
102
}
330
34B
100
AcDbXrecord
280
     1
102
SHADEPLOT
 70
     0
102
SHADEPLOTRESLEVEL
 70
     2
102
SHADEPLOTCUSTOMDPI
 70
   300
  0
XRECORD
  5
350
102
{ACAD_REACTORS
330
34F
102
}
330
34F
100
AcDbXrecord
280
     1
102
SHADEPLOT
 70
     0
102
SHADEPLOTRESLEVEL
 70
     2
102
SHADEPLOTCUSTOMDPI
 70
   300
  0
XRECORD
  5
346
102
{ACAD_REACTORS
330
345
102
}
330
345
100
AcDbXrecord
280
     1
102
MATERIAL
148
0.0
149
0.0
149
0.0
 93
        0
 94
       63
282
     0
 72
     1
 77
     1
171
     1
175
     1
179
     1
273
     0
  0
XRECORD
  5
344
102
{ACAD_REACTORS
330
343
102
}
330
343
100
AcDbXrecord
280
     1
102
MATERIAL
148
0.0
149
0.0
149
0.0
 93
        0
 94
       63
282
     0
 72
     1
 77
     1
171
     1
175
     1
179
     1
273
     0
  0
XRECORD
  5
348
102
{ACAD_REACTORS
330
347
102
}
330
347
100
AcDbXrecord
280
     1
102
MATERIAL
148
0.0
149
0.0
149
0.0
 93
        0
 94
       63
282
     0
 72
     1
 77
     1
171
     1
175
     1
179
     1
273
     0
  0
XRECORD
  5
34A
102
{ACAD_REACTORS
330
349
102
}
330
349
100
AcDbXrecord
280
     1
102
ACAD_ROUNDTRIP_PRE2007_TABLESTYLE
 90
      512
 91
        0
  1

 92
      512
 93
        0
  2

 94
      512
 95
        0
  3

  0
ENDSEC
  0
EOF
